<svg width="389" height="131" viewBox="0 0 389 131" fill="none" xmlns="http://www.w3.org/2000/svg">
<path d="M90.9772 126.305L91.2057 126.988H91.9255H117.887H119.3L118.83 125.655L76.2534 4.98975L76.018 4.32249H75.3104H45.7147H45.0062L44.7713 4.99095L2.36808 125.656L1.90016 126.988H3.31152H29.0996H29.8194L30.0479 126.305L37.0885 105.268H83.9365L90.9772 126.305ZM129.65 4.32249H128.65V5.32249V125.988V126.988H129.65H153.534H154.534V125.988V5.32249V4.32249H153.534H129.65ZM278.604 111.013L278.608 111.01C291.03 98.6369 297.248 83.4982 297.248 65.6552C297.248 47.8124 291.03 32.7295 278.605 20.4703C266.184 8.10054 251.045 1.90918 233.249 1.90918C215.451 1.90918 200.311 8.10139 187.89 20.4728C175.58 32.7329 169.423 47.815 169.423 65.6552C169.423 83.4952 175.58 98.6329 187.886 111.007L187.893 111.013C200.315 123.269 215.454 129.401 233.249 129.401C251.044 129.401 266.182 123.269 278.604 111.013ZM387.238 5.32249V4.32249H386.238H297.105H296.105V5.32249V28.0765V29.0765H297.105H328.643V125.988V126.988H329.643H353.527H354.527V125.988V29.0765H386.238H387.238V28.0765V5.32249ZM45.3762 81.0312L60.5991 35.862L75.8219 81.0312H45.3762ZM233.249 104.13C222.42 104.13 213.389 100.546 206.087 93.3872C198.794 86.1224 195.134 76.9053 195.134 65.6552C195.134 54.404 198.795 45.1862 206.089 37.9212C213.392 30.6475 222.423 27.008 233.249 27.008C244.075 27.008 253.105 30.6475 260.408 37.9212C267.702 45.1862 271.363 54.404 271.363 65.6552C271.363 76.9053 267.703 86.1224 260.41 93.3872C253.109 100.546 244.078 104.13 233.249 104.13Z" stroke="#D5BB71" stroke-width="2"/>
</svg>
