<svg id="Слой_1" data-name="Слой 1" xmlns="http://www.w3.org/2000/svg" xmlns:xlink="http://www.w3.org/1999/xlink" viewBox="0 0 1026.79 378.23"><defs><style>.cls-1{fill:none;}.cls-2{fill:#ff7d00;}.cls-3{clip-path:url(#clip-path);}.cls-4{fill:#fff;}</style><clipPath id="clip-path"><rect class="cls-1" width="1026.79" height="378.23"/></clipPath></defs><title>dns-logo</title><rect class="cls-2" width="1026.79" height="378.23"/><g class="cls-3"><path class="cls-4" d="M285.38,139h24.81v87.71a12.4,12.4,0,0,1-12.4,12.4c-3.23,0-6.18-1.65-8.77-3.63l-82.73-59.8v63.49H181.47v-87.7a12.54,12.54,0,0,1,7.66-11.56c4.64-1.92,9.4-.29,13.52,2.69l82.73,59.9ZM436,185.79a30.9,30.9,0,0,0-22.08-9.1H347.68a6.42,6.42,0,1,1,0-12.84h78.54a12.4,12.4,0,0,0,0-24.81H347.68a31.23,31.23,0,1,0,0,62.46h66.27v0a6.41,6.41,0,1,1,0,12.82H328.85a12.4,12.4,0,0,0,0,24.81h85.09A31.21,31.21,0,0,0,436,185.79m-260.46,3.27a50.08,50.08,0,0,1-50.08,50.08H46.73V139h78.75a50.08,50.08,0,0,1,50.08,50.08m-24.92,0a25.16,25.16,0,0,0-25.16-25.16H71.66v50.32h53.82a25.16,25.16,0,0,0,25.16-25.16"/><path class="cls-4" d="M496.51,216.63c-2.5-1.94-5.93-2.93-10.2-2.93h-5.15v-5.48H492.1a4.64,4.64,0,0,0,3.65-1.55,4.72,4.72,0,0,0,1.25-3.3A5.06,5.06,0,0,0,495.8,200a4.78,4.78,0,0,0-3.69-1.5H476.26a5.54,5.54,0,0,0-3.8,1.33,5.07,5.07,0,0,0-1.53,3.85v30.22a5.17,5.17,0,0,0,1.61,3.88,5.53,5.53,0,0,0,3.77,1.36h11c4,0,7.28-1.11,9.68-3.3s3.78-5.45,3.78-9.53-1.42-7.45-4.22-9.68m-6.33,9.58a3.2,3.2,0,0,1-1.06,2.59,4,4,0,0,1-2.82,1h-5.15V223.1h4.51c4,0,4.51,1.57,4.51,3.11"/><path class="cls-4" d="M540.31,198.52a4.88,4.88,0,0,0-5.11,5.26v30.11a5.26,5.26,0,0,0,1.48,3.9,5.53,5.53,0,0,0,7.3,0,5.24,5.24,0,0,0,1.45-3.87V203.77a5.25,5.25,0,0,0-1.48-3.9,5.16,5.16,0,0,0-3.64-1.36"/><path class="cls-4" d="M528.9,216.46c-2.5-2-5.94-3.09-10.23-3.09h-4.35v-9.56a5.31,5.31,0,0,0-1.48-3.93,5.5,5.5,0,0,0-7.3,0,5.3,5.3,0,0,0-1.45,3.9V234a5.11,5.11,0,0,0,1.61,3.85,5.57,5.57,0,0,0,3.77,1.34h10.16a13.71,13.71,0,0,0,9.7-3.4c2.49-2.33,3.76-5.56,3.76-9.59s-1.41-7.44-4.19-9.69M522.54,226a3.66,3.66,0,0,1-1.11,2.78,3.75,3.75,0,0,1-2.77,1h-4.35v-7.14H518a5.19,5.19,0,0,1,3.48,1,2.83,2.83,0,0,1,1,2.34"/><path class="cls-4" d="M575.82,200a4.49,4.49,0,0,0-3.48-1.48H552.77a4.49,4.49,0,0,0-3.48,1.49,4.76,4.76,0,0,0-1.26,3.33,4.81,4.81,0,0,0,1.1,3.22,4.4,4.4,0,0,0,3.64,1.6h4.67v25.7a5.32,5.32,0,0,0,1.48,3.93,5.5,5.5,0,0,0,7.3,0,5.3,5.3,0,0,0,1.45-3.9v-25.7h4.67a4.39,4.39,0,0,0,3.62-1.58,4.83,4.83,0,0,0,1.12-3.24,4.76,4.76,0,0,0-1.26-3.33"/><path class="cls-4" d="M596.14,198.52a18.39,18.39,0,0,0-14,5.89,22,22,0,0,0,0,28.85,19.67,19.67,0,0,0,28.09,0,20.61,20.61,0,0,0,5.34-14.42,20.3,20.3,0,0,0-5.45-14.31,18.23,18.23,0,0,0-14-6m-6.59,12.62a8.38,8.38,0,0,1,13.18,0,14.36,14.36,0,0,1,.05,15.44,8.58,8.58,0,0,1-13.29,0,14.36,14.36,0,0,1,.05-15.44"/><path class="cls-4" d="M642.72,216.71a9.19,9.19,0,0,0,3.37-7.57,10,10,0,0,0-3.29-7.74,11.12,11.12,0,0,0-7.83-2.88H624.76a5.54,5.54,0,0,0-3.8,1.33,5.07,5.07,0,0,0-1.53,3.85v30.22a5.17,5.17,0,0,0,1.61,3.88,5.54,5.54,0,0,0,3.77,1.35h11c4,0,7.28-1.11,9.68-3.3s3.78-5.45,3.78-9.53a10,10,0,0,0-2.63-6.85,10.38,10.38,0,0,0-3.87-2.76m-4,9.5a3.2,3.2,0,0,1-1.05,2.59,4,4,0,0,1-2.82,1h-5.15V223.1h4.51c4,0,4.51,1.57,4.51,3.11m-9-12.51v-5.8h3a3.54,3.54,0,0,1,2.32.71,2.33,2.33,0,0,1,.86,2,3,3,0,0,1-.81,2.29,3.24,3.24,0,0,1-2.37.82Z"/><path class="cls-4" d="M685.59,232.24l-10.41-28.61c-1.17-3.35-3.5-5.11-6.75-5.11s-5.44,1.71-6.74,5.09l-10.75,28.75-.18.58a5.06,5.06,0,0,0-.2,1.41,4.43,4.43,0,0,0,1.56,3.47,5.25,5.25,0,0,0,3.5,1.33,4.82,4.82,0,0,0,4.9-3.56l1.34-4.12H675l1.34,4.16a4.83,4.83,0,0,0,5,3.52,4.75,4.75,0,0,0,3.32-1.25,4.38,4.38,0,0,0,1.48-3.34,5.71,5.71,0,0,0-.12-.94,5.57,5.57,0,0,0-.38-1.38M671.88,222h-7l3.54-10.69Z"/><path class="cls-4" d="M712.31,198.52h-9.36c-9.4,0-14.37,4.57-14.37,13.2a10.29,10.29,0,0,0,3.23,7.77,13.08,13.08,0,0,0,5.57,3l-7.7,8.28a4.63,4.63,0,0,0-1.36,3.12,5.21,5.21,0,0,0,1.42,3.6,4.92,4.92,0,0,0,5.75,1.22,5,5,0,0,0,1.89-1.38l9.92-12.07v8.57a5.32,5.32,0,0,0,1.48,3.93,5.5,5.5,0,0,0,7.3,0,5.31,5.31,0,0,0,1.45-3.9v-30c0-3.42-1.85-5.3-5.22-5.3m-12.17,10.58a4,4,0,0,1,2.82-.95h4.35v7.19h-4.35a3.85,3.85,0,0,1-2.79-1,3.48,3.48,0,0,1-1-2.65,3.33,3.33,0,0,1,1-2.62"/><path class="cls-4" d="M761.17,198.52H741.6a4.5,4.5,0,0,0-3.48,1.49,4.76,4.76,0,0,0-1.26,3.33,4.81,4.81,0,0,0,1.1,3.22,4.41,4.41,0,0,0,3.64,1.6h4.67v25.7a5.33,5.33,0,0,0,1.48,3.93,5.5,5.5,0,0,0,7.3,0,5.31,5.31,0,0,0,1.45-3.9v-25.7h4.67a4.4,4.4,0,0,0,3.63-1.58,4.84,4.84,0,0,0,1.11-3.24,4.76,4.76,0,0,0-1.26-3.33,4.5,4.5,0,0,0-3.48-1.48"/><path class="cls-4" d="M787.36,229.43h-8.71v-5.9h7.59A4.89,4.89,0,0,0,790,222a4.7,4.7,0,0,0,1.25-3.3,4.83,4.83,0,0,0-1.26-3.36,4.91,4.91,0,0,0-3.75-1.5h-7.59v-5.58h8.23a4.57,4.57,0,0,0,3.64-1.55,4.7,4.7,0,0,0,1.26-3.3,5.06,5.06,0,0,0-1.2-3.36,4.79,4.79,0,0,0-3.7-1.49H773.7c-3.4,0-5.27,2.07-5.27,5.83V234a5,5,0,0,0,1.53,3.74,5.2,5.2,0,0,0,3.69,1.44h13.72a4.64,4.64,0,0,0,3.65-1.55,4.7,4.7,0,0,0,1.26-3.3,5.06,5.06,0,0,0-1.21-3.36,4.78,4.78,0,0,0-3.7-1.5"/><path class="cls-4" d="M827.58,230.94l-10-13.44,8.1-11a4.86,4.86,0,0,0,1.09-3,4.58,4.58,0,0,0-1.53-3.63,5.3,5.3,0,0,0-8,1.08l-5.67,8-5.66-8a5.31,5.31,0,0,0-8-1.12,4.6,4.6,0,0,0-1.56,3.66,4.83,4.83,0,0,0,1.07,3l8.12,11-10,13.45a5.82,5.82,0,0,0-.72,1.4,5.34,5.34,0,0,0-.4,2,4.46,4.46,0,0,0,1.53,3.53,5.16,5.16,0,0,0,3.64,1.31,5.07,5.07,0,0,0,4.21-2.22l7.8-10.82,7.81,10.82a5.06,5.06,0,0,0,4.21,2.21,5.38,5.38,0,0,0,3.69-1.31,4.6,4.6,0,0,0,1.48-3.53,6.6,6.6,0,0,0-.34-1.93,6.05,6.05,0,0,0-.79-1.44"/><path class="cls-4" d="M861.45,198.52a4.88,4.88,0,0,0-5.11,5.26v10.12H841.89V203.77a5.25,5.25,0,0,0-1.48-3.9,5.54,5.54,0,0,0-7.3,0,5.23,5.23,0,0,0-1.45,3.87v30.11a5.25,5.25,0,0,0,1.48,3.9,5.53,5.53,0,0,0,7.3,0,5.24,5.24,0,0,0,1.45-3.87V223.45h14.44v10.43a5.25,5.25,0,0,0,1.48,3.9,5.53,5.53,0,0,0,7.3,0,5.24,5.24,0,0,0,1.45-3.87V203.77a5.25,5.25,0,0,0-1.48-3.9,5.17,5.17,0,0,0-3.64-1.36"/><path class="cls-4" d="M901.93,198.52a5.19,5.19,0,0,0-4.24,2.19l-15.31,19.94V203.77a5.25,5.25,0,0,0-1.48-3.9,5.54,5.54,0,0,0-7.3,0,5.24,5.24,0,0,0-1.45,3.87v30.11a5.26,5.26,0,0,0,1.48,3.9,5.34,5.34,0,0,0,7.88-.83l15.32-19.71v16.63a5.26,5.26,0,0,0,1.48,3.9,5.53,5.53,0,0,0,7.3,0,5.25,5.25,0,0,0,1.45-3.87V203.77a5.25,5.25,0,0,0-1.48-3.9,5.17,5.17,0,0,0-3.64-1.36"/><path class="cls-4" d="M930.75,217.6l9.27-9.09c2-2,2.93-3.59,2.93-5a4.72,4.72,0,0,0-1.58-3.58,5,5,0,0,0-5.93-.71,6.31,6.31,0,0,0-1.45,1.19L922.85,212.2v-8.61a4.79,4.79,0,0,0-1.48-3.68,5.17,5.17,0,0,0-3.64-1.36,5,5,0,0,0-5.11,5v30.63a4.66,4.66,0,0,0,1.48,3.58,5.18,5.18,0,0,0,3.64,1.36,5,5,0,0,0,3.67-1.44,4.77,4.77,0,0,0,1.45-3.49V223.56l11.82,12.74c1.77,1.89,3.41,2.85,4.86,2.85a5.63,5.63,0,0,0,3.58-1.15,4.45,4.45,0,0,0,1.69-3.62c0-1.44-.86-3.06-2.54-4.8Z"/><path class="cls-4" d="M982,233.62a5.67,5.67,0,0,0-.37-1.38l-10.42-28.61c-1.17-3.35-3.5-5.11-6.75-5.11s-5.44,1.71-6.74,5.09L947,232.36l-.18.58a5.06,5.06,0,0,0-.2,1.41,4.43,4.43,0,0,0,1.56,3.47,5.25,5.25,0,0,0,3.5,1.33,4.81,4.81,0,0,0,4.9-3.56l1.34-4.12h13.14l1.34,4.16a4.83,4.83,0,0,0,5,3.52,4.75,4.75,0,0,0,3.32-1.25,4.37,4.37,0,0,0,1.48-3.34,5.78,5.78,0,0,0-.12-.94M968,222h-7l3.54-10.69Z"/><path class="cls-4" d="M548.8,144.24a5.25,5.25,0,0,0-1.48-3.9,5.35,5.35,0,0,0-7.88.83l-15.32,19.94V144.24a5.25,5.25,0,0,0-1.48-3.9,5.54,5.54,0,0,0-7.3,0,5.23,5.23,0,0,0-1.45,3.87v30.12a5.25,5.25,0,0,0,1.48,3.9,5.34,5.34,0,0,0,7.88-.82l15.32-19.71v16.63a5.25,5.25,0,0,0,1.48,3.9,5.54,5.54,0,0,0,7.3,0,5.24,5.24,0,0,0,1.45-3.87Z"/><path class="cls-4" d="M566.91,174.95a16.56,16.56,0,0,0,2-.17l.65-.09a5.11,5.11,0,0,0,10.21,0l.65.09a16.53,16.53,0,0,0,2,.17,13.7,13.7,0,0,0,10.62-4.72,16,16,0,0,0,4.12-11.09A16.24,16.24,0,0,0,593.11,148a13.76,13.76,0,0,0-10.68-4.72,17,17,0,0,0-2,.16l-.69.06a5,5,0,0,0-1.44-3.16,5.53,5.53,0,0,0-7.3,0,5,5,0,0,0-1.41,3.13l-.63-.06a17.85,17.85,0,0,0-2.06-.17A13.76,13.76,0,0,0,556.23,148a16.23,16.23,0,0,0-4.06,11.14,15.77,15.77,0,0,0,4.17,11.09,13.64,13.64,0,0,0,10.57,4.72m-4.19-15.81a6.13,6.13,0,0,1,1.84-4.55,6,6,0,0,1,4.32-1.75,7.47,7.47,0,0,1,.87.08l0,12.32a3.91,3.91,0,0,1-.89.15,6,6,0,0,1-4.32-1.7,6.06,6.06,0,0,1-1.84-4.55m16.85,6.1v-12.3h0a6.6,6.6,0,0,1,.86-.09,6,6,0,0,1,4.31,1.74,6.14,6.14,0,0,1,1.85,4.56,6.05,6.05,0,0,1-1.83,4.55,6,6,0,0,1-4.32,1.7,2.78,2.78,0,0,1-.82-.13Z"/><path class="cls-4" d="M630,152.88a13.15,13.15,0,0,0-4.25-10.08A15,15,0,0,0,615.28,139h-9.41c-3.4,0-5.27,1.88-5.27,5.3v30a5.33,5.33,0,0,0,1.48,3.93,5.5,5.5,0,0,0,7.3,0,5.31,5.31,0,0,0,1.45-3.9v-7.63h4.78A14.24,14.24,0,0,0,625.71,163,13,13,0,0,0,630,152.88m-10.54-.05a4.35,4.35,0,0,1-1.2,3.25,4,4,0,0,1-3.15,1.28h-4.3V148.3h4.3a4.12,4.12,0,0,1,3.17,1.25,4.5,4.5,0,0,1,1.18,3.28"/><path class="cls-4" d="M651.4,179.61a18.46,18.46,0,0,0,14.07-5.9,20.61,20.61,0,0,0,5.34-14.41A20.3,20.3,0,0,0,665.37,145a19.43,19.43,0,0,0-28-.12,22,22,0,0,0,0,28.85,18.39,18.39,0,0,0,14,5.89m-6.6-28a8.38,8.38,0,0,1,13.19,0A14.36,14.36,0,0,1,658,167a8.58,8.58,0,0,1-13.29,0,14.36,14.36,0,0,1,.05-15.44"/><path class="cls-4" d="M680.08,179.61h11c4,0,7.28-1.11,9.68-3.3s3.78-5.45,3.78-9.53a10,10,0,0,0-2.63-6.85,10.4,10.4,0,0,0-3.87-2.76,9.19,9.19,0,0,0,3.37-7.57,10,10,0,0,0-3.29-7.74,11.13,11.13,0,0,0-7.83-2.88H680a5.54,5.54,0,0,0-3.8,1.33,5.08,5.08,0,0,0-1.53,3.85v30.22a5.16,5.16,0,0,0,1.61,3.88,5.53,5.53,0,0,0,3.77,1.36m4.85-9.39v-6.66h4.51c4,0,4.51,1.57,4.51,3.12a3.2,3.2,0,0,1-1.05,2.59,4,4,0,0,1-2.82,1Zm0-16.05v-5.8h3a3.53,3.53,0,0,1,2.32.71,2.33,2.33,0,0,1,.86,2,3,3,0,0,1-.81,2.29,3.23,3.23,0,0,1-2.37.82Z"/><path class="cls-4" d="M741.35,175a5.77,5.77,0,0,0-.12-.94,5.69,5.69,0,0,0-.37-1.38L730.44,144.1c-1.17-3.35-3.5-5.12-6.75-5.12s-5.44,1.71-6.74,5.09l-10.75,28.75-.18.58a5.08,5.08,0,0,0-.2,1.41,4.43,4.43,0,0,0,1.56,3.47,5.25,5.25,0,0,0,3.5,1.33,4.81,4.81,0,0,0,4.9-3.56l1.34-4.12h13.14l1.34,4.17a4.83,4.83,0,0,0,5,3.52,4.76,4.76,0,0,0,3.32-1.25,4.38,4.38,0,0,0,1.48-3.34m-14.2-12.58h-7l3.54-10.69Z"/><path class="cls-4" d="M772.79,174.3v-30c0-3.42-1.85-5.3-5.22-5.3h-9.36c-9.4,0-14.37,4.57-14.37,13.2a10.29,10.29,0,0,0,3.23,7.77,13.06,13.06,0,0,0,5.57,3l-7.7,8.28a4.63,4.63,0,0,0-1.36,3.12A5.21,5.21,0,0,0,745,178a5.14,5.14,0,0,0,7.64-.16l9.92-12.07v8.58a5.31,5.31,0,0,0,1.48,3.93,5.51,5.51,0,0,0,7.3,0,5.31,5.31,0,0,0,1.45-3.9m-17.39-24.74a4,4,0,0,1,2.82-.95h4.35v7.19h-4.35a3.86,3.86,0,0,1-2.79-1,3.48,3.48,0,0,1-1-2.65,3.33,3.33,0,0,1,1-2.62"/><path class="cls-4" d="M824.94,139a5.19,5.19,0,0,0-4.24,2.19l-15.31,19.94V144.24a5.25,5.25,0,0,0-1.48-3.9,5.54,5.54,0,0,0-7.3,0,5.24,5.24,0,0,0-1.45,3.87v30.12a5.26,5.26,0,0,0,1.48,3.9,5.34,5.34,0,0,0,7.88-.82l15.32-19.71v16.63a5.26,5.26,0,0,0,1.48,3.9,5.53,5.53,0,0,0,7.3,0,5.25,5.25,0,0,0,1.45-3.87V144.24a5.25,5.25,0,0,0-1.48-3.9,5.18,5.18,0,0,0-3.64-1.36"/><path class="cls-4" d="M509.7,185.14a5.31,5.31,0,0,0,1.45-3.9V175.6a5.31,5.31,0,0,0-1.5-3.9,5,5,0,0,0-3.62-1.4h-.2v-26a5.31,5.31,0,0,0-1.48-3.93,5.5,5.5,0,0,0-7.3,0,5.31,5.31,0,0,0-1.45,3.9v26H481.16v-26a5.31,5.31,0,0,0-1.48-3.93,5.5,5.5,0,0,0-7.3,0,5.31,5.31,0,0,0-1.44,3.9v30a5.32,5.32,0,0,0,1.5,3.9,5,5,0,0,0,3.61,1.4h24.88v1.63a5.32,5.32,0,0,0,1.48,3.93,5.51,5.51,0,0,0,7.3,0"/></g></svg>