<svg xmlns="http://www.w3.org/2000/svg" viewBox="0 0 1446.34 284.11"><defs><style>.cls-1{fill:#fff;}.cls-2,.cls-9{fill:#f3c224;}.cls-3{fill:#101010;}.cls-10,.cls-4,.cls-5,.cls-6{fill:#070102;}.cls-5{opacity:0.4;}.cls-6{opacity:0.5;}.cls-7{opacity:0.6;}.cls-8{fill:#f08b1a;}.cls-10,.cls-9{fill-rule:evenodd;}</style></defs><rect class="cls-1" x="686.77" y="71.48" width="2.8" height="201.74" transform="translate(1376.35 344.71) rotate(180)"/><rect class="cls-2" x="800.11" y="75.53" width="646.24" height="193.64"/><path class="cls-3" d="M1173.42,166.45c0-11.84,10.95-19.8,21.17-19.8,12.43,0,20.15,8.77,20.15,22.89v53.6h14.07V167.83c0-10.24,5.66-21.18,21.52-21.18,12.34,0,20.32,9,20.32,22.89v53.6h14.07v-53.6c0-22.27-12.52-36.11-32.67-36.11-11.87,0-22.14,5.11-28.55,14.1-4.2-6.86-12-14.1-26.34-14.1-9.66,0-17.94,3.44-23.74,9.78v-8.58h-14.08v88.51h14.08Z"/><path class="cls-3" d="M1012.46,177.59c-.08-13.38-4.28-24.71-12.14-32.76-7.39-7.57-17.73-11.74-29.11-11.74-25.79,0-44.51,19.22-44.51,45.71,0,26.82,18.16,45.54,44.17,45.54,17.23,0,30.66-7.42,38.82-21.48l.7-1.21-12.06-7.75-.77,1.31c-6.36,10.86-14.85,15.92-26.69,15.92-16.5,0-29.19-12.36-30-29h71.64Zm-71-8.14a30,30,0,0,1,29.4-23.14c14,0,24.8,9.23,27.28,23.14Z"/><polygon class="cls-3" points="881.03 147.85 921.33 147.85 921.33 134.63 866.96 134.63 866.96 223.31 881.03 223.31 881.03 147.85"/><path class="cls-3" d="M1340.9,224.34c17.23,0,30.66-7.42,38.82-21.48l.7-1.21-12.06-7.75-.77,1.31c-6.36,10.86-14.85,15.92-26.69,15.92-16.5,0-29.19-12.36-30.05-29h71.64v-4.56c-.08-13.38-4.28-24.71-12.14-32.76-7.39-7.57-17.73-11.74-29.11-11.74-25.79,0-44.51,19.22-44.51,45.71C1296.73,205.62,1314.89,224.34,1340.9,224.34Zm-29.4-54.89a30,30,0,0,1,29.4-23.14c14,0,24.8,9.23,27.28,23.14Z"/><rect class="cls-3" x="1127.01" y="108.49" width="14.07" height="114.65"/><path class="cls-3" d="M1067.49,224.69a42.89,42.89,0,0,0,27.35-9.48v8.1h13.91v-88.5h-13.91V143a43.34,43.34,0,0,0-27.35-9.52c-12.58,0-24,4.68-32.26,13.18s-12.59,19.95-12.59,32.53,4.47,24.11,12.59,32.45S1054.9,224.69,1067.49,224.69Zm-30.78-45.55c0-18,12.94-31.63,30.1-31.63,17.79,0,29.75,12.71,29.75,31.63s-12,31.47-29.75,31.47C1049.65,210.61,1036.71,197.08,1036.71,179.14Z"/><path class="cls-1" d="M347.36,77.84a9.09,9.09,0,0,1,9.34-9.26,8.79,8.79,0,0,1,7.67,4.26l-2.55,1.48a5.7,5.7,0,0,0-5.12-2.88,6.4,6.4,0,1,0,0,12.8,5.68,5.68,0,0,0,5.12-2.88l2.55,1.45a8.72,8.72,0,0,1-7.67,4.29A9.09,9.09,0,0,1,347.36,77.84Z"/><path class="cls-1" d="M377.65,84v2.81H366.8V68.91h10.72v2.81h-7.78v4.64h7.14v2.78h-7.14V84Z"/><path class="cls-1" d="M390.53,84v2.81h-10.2V68.91h2.93V84Z"/><path class="cls-1" d="M403.54,84v2.81H392.7V68.91h10.72v2.81h-7.78v4.64h7.14v2.78h-7.14V84Z"/><path class="cls-1" d="M419.23,81.67a5.14,5.14,0,0,1-5.35,5.1h-7.65V68.91h7.09a5,5,0,0,1,5.23,5,4.38,4.38,0,0,1-1.82,3.65A4.53,4.53,0,0,1,419.23,81.67Zm-10.07-10v4.69h4.16a2.35,2.35,0,0,0,0-4.69Zm7.14,9.84a2.43,2.43,0,0,0-2.42-2.5h-4.72v5h4.72A2.43,2.43,0,0,0,416.3,81.51Z"/><path class="cls-1" d="M428.19,80.26h-3.47v6.51h-2.93V68.91h7.14a5.72,5.72,0,0,1,5.74,5.74,5.62,5.62,0,0,1-3.55,5.18l4.06,6.94H432Zm-3.47-2.63h4.21a3,3,0,0,0,0-6h-4.21Z"/><path class="cls-1" d="M447.81,83.17h-7.6L439,86.77h-3.18l6.47-17.86h3.52l6.46,17.86h-3.17Zm-1-2.75L444,72.36l-2.83,8.06Z"/><path class="cls-1" d="M464.47,71.72h-5v15h-2.93v-15h-5V68.91h13Z"/><path class="cls-1" d="M469.58,68.91V86.77h-2.93V68.91Z"/><path class="cls-1" d="M486.8,68.91V86.77h-2.3l-8.41-12.12V86.77h-2.94V68.91h2.3L483.87,81V68.91Z"/><path class="cls-1" d="M507.74,78.76c0,4.87-3.51,8.34-8.74,8.34a9.26,9.26,0,1,1-.16-18.52,9,9,0,0,1,7.78,4.24l-2.52,1.45a5.94,5.94,0,0,0-5.26-2.83,6.4,6.4,0,1,0,.18,12.8c3.24,0,5.23-1.68,5.77-4.08h-6V77.53h8.92Z"/><path class="cls-1" d="M515.54,68.91h3.08l3.75,14,4-14h2.71l4,14,3.75-14H540l-5,17.86h-3.39l-3.77-13-3.8,13h-3.4Z"/><path class="cls-1" d="M545.23,68.91V86.77H542.3V68.91Z"/><path class="cls-1" d="M560.41,71.72h-5v15h-2.94v-15h-5V68.91h13Z"/><path class="cls-1" d="M576.1,68.91V86.77h-2.93V79h-7.65v7.73h-2.93V68.91h2.93v7.32h7.65V68.91Z"/><polygon class="cls-1" points="360.96 180.84 372.67 180.84 372.67 109.58 362.49 109.58 343.75 116.2 346.61 126.17 360.96 122.11 360.96 180.84"/><path class="cls-1" d="M409.82,182.17c17.92,0,28-15,28-37s-10.08-36.95-28-36.95-28,15-28,37S391.9,182.17,409.82,182.17Zm0-62.51c10.59,0,16.29,9.16,16.29,25.55s-5.7,25.56-16.29,25.56-16.29-9.17-16.29-25.56S399.33,119.66,409.82,119.66Z"/><path class="cls-1" d="M471.4,182.17c17.92,0,28-15,28-37s-10.08-36.95-28-36.95-28,15-28,37S453.48,182.17,471.4,182.17Zm0-62.51c10.58,0,16.29,9.16,16.29,25.55S482,170.77,471.4,170.77s-16.29-9.17-16.29-25.56S460.91,119.66,471.4,119.66Z"/><polygon class="cls-1" points="519.74 129.94 541.43 165.88 542.85 165.88 564.54 130.04 564.54 180.84 576.24 180.84 576.24 109.58 563.72 109.58 542.14 145.22 520.66 109.58 508.03 109.58 508.03 180.84 519.74 180.84 519.74 129.94"/><polygon class="cls-1" points="395.07 234.69 366.06 234.69 366.06 214.74 396.09 214.74 396.09 203.53 354.35 203.53 354.35 274.8 366.06 274.8 366.06 245.89 395.07 245.89 395.07 234.69"/><path class="cls-1" d="M420.72,203.54,394.86,274.8h12.72l5-14.35h30.33l5,14.35h12.62l-25.75-71.26Zm-4.28,45.91,11.3-32.17L439,249.45Z"/><polygon class="cls-1" points="508.36 251.9 474.76 203.53 465.6 203.53 465.6 274.8 477.31 274.8 477.31 226.44 510.91 274.8 520.07 274.8 520.07 203.53 508.36 203.53 508.36 251.9"/><path class="cls-1" d="M556,233.57c-10.38-3.26-14.35-5.6-14.35-11.1s4.37-8.86,11.19-8.86c7.94,0,12.42,4.28,15,10l9.87-5.7a26.45,26.45,0,0,0-24.84-15.68c-12,0-22.9,7.43-22.9,20.57,0,13.44,10.79,17.51,21.89,20.87C562.4,246.9,568,249,568,255.35c0,5.2-4,9.37-13.23,9.37-9.67,0-15.17-4.79-17.72-12L527,258.61c3.76,10.59,13.43,17.51,27.48,17.51,14.87,0,25.25-7.94,25.25-21C579.71,241,567.8,237.34,556,233.57Z"/><path class="cls-2" d="M304.71,130.37c-8.62-1.87-36.88-7.17-38.23-7.38s-5.68-1.08-.63-1.85S286,117,291.1,115.66,302.26,112,302.26,110s-2-3.74-8.47-5.56-20.26-5-27.93-7.12c-4.32-1.19-9-2.27-10.12-5a139.41,139.41,0,0,0-12.26-23.51c-1.14-1.94-.68-2.31-2.15-9.54C235.75,31.65,227.45,16.33,222.28,6c-4.87-9.74-8.74-6.11-13,.44s-9.42,15-12.28,20.11-4.58,4.76-9.45,3.33-15.94-3.22-29-3.22-24,1.75-29,3.22-6.6,1.75-9.45-3.33-8-13.55-12.28-20.11S99.69-3.76,94.82,6c-5.17,10.35-13.47,25.67-19,53.24-1.47,7.23-1,7.6-2.15,9.54A139.41,139.41,0,0,0,61.36,92.27c-1.1,2.76-5.81,3.84-10.12,5-7.67,2.12-21.5,5.29-27.93,7.12s-8.47,3.5-8.47,5.56,6,4.4,11.16,5.68,20.19,4.7,25.25,5.48.71,1.64-.63,1.85S21,128.5,12.39,130.37,0,134,0,137.11s4.55,4.07,15,5.65,38.41,4.53,43.93,5.6,6.47,2.51,1.39,3.42S32.07,157,26.45,158.32s-7.07,3-7.27,4.66,1.39,3.34,9,4.66c6.11,1.06,29,5,41.92,7.7a23.07,23.07,0,0,1,11.61,6.45c16.14,16.29,44.76,30,76.82,30s60.68-13.69,76.82-30A23.07,23.07,0,0,1,247,175.34c12.9-2.72,35.81-6.64,41.92-7.7,7.63-1.32,9.22-3,9-4.66s-1.66-3.34-7.27-4.66-28.8-5.63-33.89-6.54-4.13-2.34,1.39-3.42,33.46-4,43.93-5.6,15-2.57,15-5.65S313.33,132.23,304.71,130.37Z"/><path class="cls-4" d="M158.55,137.89c-8.38,0-19.79,1.16-20.15,3.53-.28,1.87,5.4,3.77,9.89,6.78,4.93,3.3,7.32,5.66,10.26,5.66s5.33-2.36,10.26-5.66c4.49-3,10.17-4.91,9.89-6.78C178.34,139.05,166.93,137.89,158.55,137.89Z"/><path class="cls-5" d="M144.56,210.73a94.62,94.62,0,0,0,14,1C153.61,211.6,149,211.21,144.56,210.73Z"/><path class="cls-6" d="M21,114.11a10.68,10.68,0,0,1-1.71-.68C19.79,113.67,20.36,113.89,21,114.11Z"/><g class="cls-7"><path class="cls-8" d="M110.16,37.57c3.16-2.13,9.51-4.9,16.59-7-2.86.56-4.41-.11-6.63-4.06-2.86-5.09-8-13.55-12.28-20.11l-.49-.72c2.13,3.58,9.06,17.41,8.69,23.21C115.86,31.66,113.46,35.25,110.16,37.57Z"/><path class="cls-8" d="M93.28,49.13a71.54,71.54,0,0,0-12,7.4l-.13.09c-2.84,2.26-4.22-1.68-1.49-13.26-1.37,4.79-2.67,10-3.85,15.86-1.47,7.23-1,7.6-2.15,9.54h0C76,64.59,83.94,55.34,93.28,49.13Z"/><path class="cls-8" d="M70.57,155.88s.42,5.41,1.48,11.47v.08c.54,3.78-5.56,3.2-14.7,2.64-9.72-.59-22.69-1.36-30-2.59l.82.16c6.11,1.06,29,5,41.92,7.7a23.07,23.07,0,0,1,11.61,6.45c12.65,12.76,33,23.89,56.58,28.13,2,.29,4.09.58,6.25.81C103.23,204.62,76.75,172.65,70.57,155.88Z"/><path class="cls-8" d="M62.22,151.32l.14,0c7.26-2,5-4.18,3.62-14.32.16,4-.37,6.15-12.36,6.38-16.43.32-31.77.13-44.91-1.63,1.81.34,3.89.68,6.31,1,10.47,1.59,38.41,4.53,43.93,5.6C63.62,149.27,65,150.43,62.22,151.32Z"/><path class="cls-8" d="M51.25,121.14c3.23.49,2.62,1,1.4,1.4h0c.3-.06.63-.13,1-.22h0c6.5-1.31,7.44-2.17,15.06,3.84l3-14.75S56,102.74,56.2,104c1.16,7.42,2.24,13.62-6.51,13-.87-.07-1.54-.11-2.11-.13-8.65-.48-20.42-.84-26.44-2.64A49.4,49.4,0,0,0,26,115.66C31.14,117,46.19,120.36,51.25,121.14Z"/><path class="cls-8" d="M95.54,137.89c13.75-.08,35.17-3.59,63-3.59V119.44l-88,8.16C77.85,135,85.12,138,95.54,137.89Z"/><path class="cls-8" d="M201.06,28.91c-.37-5.8,6.56-19.63,8.69-23.21l-.49.72C205,13,199.84,21.44,197,26.53c-2.22,3.95-3.77,4.62-6.63,4.06,7.08,2.08,13.43,4.85,16.59,7C203.64,35.25,201.24,31.66,201.06,28.91Z"/><path class="cls-8" d="M243.48,68.76h0c-1.14-1.94-.68-2.31-2.15-9.54-1.18-5.82-2.48-11.07-3.85-15.86,2.73,11.58,1.35,15.52-1.49,13.26l-.13-.09a71.54,71.54,0,0,0-12-7.4C233.16,55.34,241.11,64.59,243.48,68.76Z"/><path class="cls-8" d="M245.05,167.43a.22.22,0,0,1,0-.08c1.05-6.06,1.47-11.47,1.47-11.47-6.18,16.77-32.66,48.74-74,54.85,2.16-.23,4.21-.52,6.25-.81,23.62-4.24,43.93-15.37,56.58-28.13A23.07,23.07,0,0,1,247,175.34c12.9-2.72,35.81-6.64,41.92-7.7l.82-.16c-7.28,1.23-20.25,2-30,2.59C250.61,170.63,244.51,171.21,245.05,167.43Z"/><path class="cls-8" d="M263.48,143.35c-12-.23-12.52-2.36-12.36-6.38-1.38,10.14-3.64,12.35,3.62,14.32l.14,0c-2.75-.89-1.4-2,3.27-3,5.52-1.07,33.46-4,43.93-5.6,2.42-.36,4.5-.7,6.31-1C295.25,143.48,279.91,143.67,263.48,143.35Z"/><path class="cls-8" d="M263.48,122.32h0c.34.09.67.16,1,.22h0c-1.22-.37-1.83-.91,1.4-1.4,5.06-.78,20.11-4.19,25.25-5.48a49.4,49.4,0,0,0,4.86-1.48c-6,1.8-17.79,2.16-26.44,2.64-.57,0-1.24.06-2.11.13-8.75.66-7.67-5.54-6.51-13,.2-1.25-15.5,7.42-15.5,7.42l3,14.75C256,120.15,257,121,263.48,122.32Z"/><path class="cls-8" d="M246.53,127.6l-88-8.16V134.3c27.84,0,49.26,3.51,63,3.59C232,138,239.25,135,246.53,127.6Z"/></g><path class="cls-4" d="M259.36,78.24A10.69,10.69,0,0,0,250,73.68h-183a10.69,10.69,0,0,0-9.33,4.56c-2.06,2.68-2,5.87-2,8.65V97.51c0,5.68.9,16.93,10,26S85,134.3,93.35,134.3h130.4c8.34,0,18.43-1.67,27.57-10.77s10-20.34,10-26V86.89C261.36,84.11,261.42,80.92,259.36,78.24Z"/><rect class="cls-1" x="86.45" y="97.84" width="144.2" height="8.81" rx="4.41"/><path class="cls-4" d="M279.82,216.93a19.09,19.09,0,0,0-7.38-11.75,13.16,13.16,0,0,0,.45-7.13c-1.86-10-11.66-17.77-22.33-17.77H214.37a19.32,19.32,0,0,0-14.13,5.89,16.86,16.86,0,0,0-3.41,5.51,21,21,0,0,0-18.92-11.4h-50.1a2.22,2.22,0,0,0-2.21,2.11l-.9,17.78-5.31-10.49,0,0a16.8,16.8,0,0,0-2.48-3.55,19.32,19.32,0,0,0-14.13-5.89H66.54c-10.67,0-20.48,7.81-22.33,17.77a13.16,13.16,0,0,0,.45,7.13,19.08,19.08,0,0,0-7.38,11.76A17.56,17.56,0,0,0,40.8,231.5a17.19,17.19,0,0,0,4.44,3.67c5.65,3.41,22.57,13.73,22.57,13.73H249.29s16.92-10.32,22.57-13.73a17.19,17.19,0,0,0,4.44-3.67A17.57,17.57,0,0,0,279.82,216.93Z"/><path class="cls-1" d="M250.56,180.28c10.67,0,20.47,7.8,22.33,17.77a13.16,13.16,0,0,1-.45,7.13,19.09,19.09,0,0,1,7.38,11.75,17.57,17.57,0,0,1-3.52,14.57,17.19,17.19,0,0,1-4.44,3.67c-5.65,3.41-22.57,13.73-22.57,13.73H67.81s-16.92-10.32-22.57-13.73a17.19,17.19,0,0,1-4.44-3.67,17.56,17.56,0,0,1-3.52-14.56,19.08,19.08,0,0,1,7.38-11.76,13.16,13.16,0,0,1-.45-7.13c1.85-10,11.66-17.77,22.33-17.77h36.19a19.32,19.32,0,0,1,14.13,5.89,16.8,16.8,0,0,1,2.48,3.55l0,0,5.31,10.49.9-17.78a2.22,2.22,0,0,1,2.21-2.11h50.1a21,21,0,0,1,18.92,11.4,16.86,16.86,0,0,1,3.41-5.51,19.32,19.32,0,0,1,14.13-5.89h36.19m0-3.82H214.37a23.13,23.13,0,0,0-16.93,7.11c-.3.32-.6.66-.88,1a25.28,25.28,0,0,0-18.65-8.12h-50.1a6,6,0,0,0-6,5.74l-.19,3.83a19.63,19.63,0,0,0-1.93-2.46,23.13,23.13,0,0,0-16.93-7.11H66.54c-12.46,0-23.92,9.18-26.09,20.89a18.11,18.11,0,0,0-.1,6.47,22.63,22.63,0,0,0-6.82,12.39,21.37,21.37,0,0,0,4.32,17.73,20.9,20.9,0,0,0,5.41,4.5c5.65,3.41,22.56,13.72,22.56,13.72a3.76,3.76,0,0,0,2,.56H249.29a3.76,3.76,0,0,0,2-.56s16.91-10.31,22.56-13.72a20.9,20.9,0,0,0,5.41-4.5,21.38,21.38,0,0,0,4.32-17.73,22.63,22.63,0,0,0-6.82-12.39,18.34,18.34,0,0,0-.1-6.47c-2.18-11.72-13.64-20.89-26.09-20.89Z"/><path class="cls-1" d="M141.34,214.62h37.59c9.4,0,16.5-7.18,16-15.65s-8.16-14.87-17-14.87H129.34l-.62,12.25h49.6a2.86,2.86,0,0,1,2.94,2.62,2.64,2.64,0,0,1-2.76,2.65H141.71c-9.1,0-17,6.89-17.46,15.79l-.93,16.65h70.23l-.77-13.83H138.23l.09-2.82A3,3,0,0,1,141.34,214.62Z"/><path class="cls-1" d="M113.7,206.43a10.42,10.42,0,0,0,3.87-7.68c.57-8.25-6.13-14.65-14.84-14.65H66.54c-8.7,0-17,6.39-18.57,14.65-.64,3.4.17,5.88,1.9,7.68A15.77,15.77,0,0,0,41,217.65c-1.7,8.89,4.52,16.41,14.07,16.41h46.31c9.56,0,17.69-7.53,18.26-16.41A11.46,11.46,0,0,0,113.7,206.43ZM65.08,196.35h36a2.66,2.66,0,0,1,2.82,2.85,3.36,3.36,0,0,1-3.37,2.88H64.18a2.5,2.5,0,0,1-2.65-2.88A3.64,3.64,0,0,1,65.08,196.35Zm37.09,23.88H57.89a2.58,2.58,0,0,1-2.7-3.06,3.83,3.83,0,0,1,3.69-3h43.85a2.79,2.79,0,0,1,2.91,3A3.48,3.48,0,0,1,102.17,220.23Z"/><path class="cls-1" d="M267.22,206.43c1.74-1.8,2.55-4.28,1.91-7.68-1.53-8.26-9.87-14.65-18.57-14.65H214.37c-8.71,0-15.41,6.4-14.84,14.65a10.42,10.42,0,0,0,3.87,7.68,11.46,11.46,0,0,0-6,11.22c.56,8.88,8.7,16.41,18.26,16.41H262c9.55,0,15.77-7.52,14.07-16.41A15.76,15.76,0,0,0,267.22,206.43ZM216,196.35h36a3.62,3.62,0,0,1,3.54,2.85,2.49,2.49,0,0,1-2.64,2.88H216.59a3.36,3.36,0,0,1-3.37-2.88A2.66,2.66,0,0,1,216,196.35Zm43.17,23.88H214.93a3.48,3.48,0,0,1-3.47-3.06,2.79,2.79,0,0,1,2.91-3h43.85a3.83,3.83,0,0,1,3.69,3A2.59,2.59,0,0,1,259.21,220.23Z"/><path class="cls-9" d="M17.47,283.21l15.29-34.33a.93.93,0,0,1,.84-.55H283.5a.93.93,0,0,1,.84.55l15.29,34.33a.64.64,0,0,1-.58.9h-281A.64.64,0,0,1,17.47,283.21Z"/><path class="cls-10" d="M60.11,259.61a10.38,10.38,0,0,0-9.35,7c-1.47,4.08.27,7.3,4.84,7.3a9.58,9.58,0,0,0,6.88-3l-2.26-1.66a5.18,5.18,0,0,1-3.47,1.38c-1.83,0-3-.77-2.9-2.58H63.92a9.21,9.21,0,0,0,.58-1.44C65.73,262.66,64,259.61,60.11,259.61Zm1.38,5.7H54.73a5,5,0,0,1,4.37-2.68A2.2,2.2,0,0,1,61.49,265.31ZM78.57,260l-.41,1.53a3.86,3.86,0,0,0-3.72-1.9c-3.46,0-7.24,3-8.46,7s.74,7.3,4.37,7.3a7.12,7.12,0,0,0,5-2.05l-.45,1.65h3.51L81.93,260Zm-1.79,6.59a5.12,5.12,0,0,1-4.8,3.85c-2.12,0-3.25-1.57-2.57-3.85a5.11,5.11,0,0,1,4.74-3.75C76.25,262.82,77.39,264.32,76.78,266.57Zm9.53-12.41-4.85,19.31H85l4.63-19.31Zm19.29,5.45a5.49,5.49,0,0,0-4.24,1.87,3.12,3.12,0,0,0-3.17-1.87,5.19,5.19,0,0,0-4,1.74l.3-1.37H91.15l-3.1,13.49h3.51l1.69-7.73c.43-2,1.67-3,3.12-3s2,.95,1.69,2.52l-1.66,8.21h3.51l1.48-7.73c.38-2,1.52-3,3-3s2,.95,1.77,2.52l-1.44,8.21h3.51l1.38-8.45C110.16,261.72,108.56,259.61,105.6,259.61Zm13.83,0a8.07,8.07,0,0,0-8,7c-.63,4.08,1.75,7.3,6.33,7.3a7.74,7.74,0,0,0,6.27-3l-2.6-1.66a4.21,4.21,0,0,1-3.19,1.38c-1.83,0-3.2-.77-3.42-2.58h10.07a8,8,0,0,0,.29-1.44C125.67,262.66,123.28,259.61,119.43,259.61Zm-4.22,5.7a3.9,3.9,0,0,1,3.82-2.68,2.76,2.76,0,0,1,2.93,2.68Zm18.41,8.16h3.76l.51-7.44h7.22l.16-3.5h-7.14l.3-4.3h7.23l.15-3.33H135.13ZM157.83,260v1.53a5.15,5.15,0,0,0-4.23-1.9c-3.45,0-6.43,3-6.58,7s2.72,7.3,6.34,7.3a5.38,5.38,0,0,0,4.45-2.05v1.65h3.51L161.18,260Zm-3.77,10.44a3.54,3.54,0,0,1-3.62-3.85,3.65,3.65,0,0,1,3.73-3.75,3.53,3.53,0,0,1,3.64,3.75A3.67,3.67,0,0,1,154.06,270.42Zm17.26-10.81a4.29,4.29,0,0,0-3.82,1.82l0-1.45H164.1l.26,13.49h3.51l-.23-7.44c-.07-2.32,1.14-3.29,2.79-3.29a2.59,2.59,0,0,1,2.73,2.73l.4,8h3.5l-.5-8.43C176.34,261.53,174.07,259.61,171.32,259.61Zm25.19,2.92h-7.13l-.45-4.3h7.24l-.43-3.33H185.06l1.71,18.57h3.75l-.77-7.44H197Zm16.2,4a8.25,8.25,0,0,0-7.83-7c-4.08,0-6.46,3-5.92,7a8.33,8.33,0,0,0,8.44,7.3,5.6,5.6,0,0,0,5.41-3l-3.09-1.66a3.08,3.08,0,0,1-2.78,1.38,4.21,4.21,0,0,1-4.18-2.58h10.07A8.22,8.22,0,0,0,212.71,266.57Zm-10.4-1.26a2.75,2.75,0,0,1,3-2.68,3.93,3.93,0,0,1,3.71,2.68ZM217,263.69c-.14-.72.47-1.09,1.31-1.09a2.84,2.84,0,0,1,2.38,1.35l2.56-1.58a7,7,0,0,0-5.54-2.76c-2.68,0-4.66,1.48-4.17,4.16.88,4.73,7.56,3.64,8,5.63.17.8-.51,1.19-1.61,1.19a3.24,3.24,0,0,1-3-1.79l-2.68,1.74a7.23,7.23,0,0,0,6.33,3.33c2.91,0,5.15-1.47,4.49-4.47C224,264.43,217.43,265.66,217,263.69Zm14.25,5.11L230,263.21h3l-.81-3.23h-2.94l-.86-3.57-3.09,1,.59,2.59h-2.26l.72,3.23h2.28l1.29,5.59c.85,3.74,2.86,5.24,7.65,4.67l-.82-3.27C232.7,270.31,231.65,270.29,231.29,268.8Zm3.06-8.82,3.49,13.49h3.51L237.71,260Zm1.26-1.54a1.52,1.52,0,0,0,1.53-2,2.87,2.87,0,0,0-2.59-2,1.52,1.52,0,0,0-1.5,2A2.83,2.83,0,0,0,235.61,258.44Zm13.2,10.85L242.89,260h-3.7l8.88,13.49h4L252.9,260h-3.69ZM263.76,260l.55,1.53a7.45,7.45,0,0,0-4.92-1.9c-3.45,0-5.35,3-4.07,7s5.35,7.3,9,7.3c2,0,3.18-.79,3.71-2.05l.6,1.65h3.5l-5-13.49Zm0,10.44a5.54,5.54,0,0,1-5-3.85c-.75-2.25.3-3.75,2.37-3.75a5.52,5.52,0,0,1,5,3.75C266.94,268.85,265.91,270.42,263.76,270.42Zm7.35-16.26h-3.28l7.33,19.31h3.51ZM53,260H43.71l-5.28,13.49h3.51l4-10.64h6Z"/></svg>