<svg xmlns="http://www.w3.org/2000/svg" viewBox="0 0 1446.34 284.1"><defs><style>.cls-1,.cls-8{fill:#f3c224;}.cls-2,.cls-3,.cls-4,.cls-9{fill:#070102;}.cls-3{opacity:0.4;}.cls-4{opacity:0.5;}.cls-5{opacity:0.6;}.cls-6{fill:#f08b1a;}.cls-7{fill:#fff;}.cls-8,.cls-9{fill-rule:evenodd;}.cls-10{fill:#231815;}.cls-11{fill:#101010;}</style></defs><path class="cls-1" d="M304.71,130.36c-8.62-1.86-36.89-7.16-38.23-7.37s-5.68-1.08-.63-1.85S286,117,291.1,115.66,302.25,112,302.25,110s-2-3.74-8.46-5.57-20.27-5-27.94-7.11c-4.31-1.19-9-2.28-10.11-5a140.57,140.57,0,0,0-12.26-23.51c-1.14-1.94-.69-2.32-2.15-9.55C235.74,31.64,227.44,16.33,222.27,6c-4.86-9.74-8.73-6.11-13,.44s-9.42,15-12.28,20.1-4.58,4.77-9.45,3.34-15.95-3.22-29-3.22-24,1.75-29,3.22c-4.86,1.43-6.59,1.75-9.44-3.34s-8-13.54-12.28-20.1S99.69-3.76,94.82,6c-5.17,10.35-13.47,25.66-19,53.23-1.47,7.23-1,7.61-2.15,9.55A139,139,0,0,0,61.36,92.27c-1.1,2.75-5.81,3.84-10.12,5-7.67,2.12-21.5,5.29-27.93,7.11s-8.47,3.5-8.47,5.57,6,4.4,11.16,5.68,20.19,4.7,25.24,5.48.72,1.64-.62,1.85S21,128.5,12.39,130.36,0,134,0,137.11s4.55,4.07,15,5.65,38.41,4.53,43.93,5.6,6.47,2.5,1.39,3.42S32.07,157,26.45,158.32s-7.07,3-7.27,4.66,1.39,3.34,9,4.66c6.11,1.06,29,5,41.92,7.69a23.08,23.08,0,0,1,11.61,6.46c16.14,16.29,44.76,30,76.82,30s60.67-13.68,76.82-30A23,23,0,0,1,247,175.33c12.9-2.71,35.8-6.63,41.92-7.69,7.62-1.32,9.21-3,9-4.66s-1.65-3.34-7.27-4.66-28.8-5.63-33.88-6.54-4.13-2.35,1.39-3.42,33.45-4,43.92-5.6,15-2.57,15-5.65S313.33,132.23,304.71,130.36Z"/><path class="cls-2" d="M158.55,137.89c-8.39,0-19.8,1.16-20.15,3.53-.28,1.86,5.4,3.77,9.89,6.78,4.92,3.29,7.31,5.66,10.26,5.66s5.33-2.37,10.25-5.66c4.5-3,10.17-4.92,9.9-6.78C178.34,139.05,166.93,137.89,158.55,137.89Z"/><path class="cls-3" d="M144.56,210.73a96,96,0,0,0,14,1C153.61,211.59,149,211.21,144.56,210.73Z"/><path class="cls-4" d="M21,114.11a10.93,10.93,0,0,1-1.7-.68C19.79,113.67,20.36,113.89,21,114.11Z"/><g class="cls-5"><path class="cls-6" d="M110.16,37.57c3.16-2.13,9.5-4.9,16.59-7-2.86.56-4.41-.11-6.63-4.07-2.86-5.08-8-13.55-12.28-20.1l-.49-.72c2.13,3.58,9.06,17.41,8.69,23.21C115.86,31.66,113.46,35.25,110.16,37.57Z"/><path class="cls-6" d="M93.27,49.13a71.71,71.71,0,0,0-12,7.4l-.13.09c-2.84,2.26-4.22-1.68-1.5-13.26-1.36,4.79-2.67,10-3.84,15.85-1.47,7.23-1,7.61-2.15,9.55h0C76,64.58,83.94,55.34,93.27,49.13Z"/><path class="cls-6" d="M70.57,155.88s.42,5.4,1.47,11.47a.17.17,0,0,1,0,.07c.54,3.79-5.56,3.21-14.7,2.65-9.72-.59-22.69-1.36-30-2.59l.83.16c6.11,1.06,29,5,41.92,7.69a23.08,23.08,0,0,1,11.61,6.46c12.64,12.76,33,23.89,56.57,28.13,2,.29,4.1.58,6.26.81C103.23,204.62,76.75,172.65,70.57,155.88Z"/><path class="cls-6" d="M62.22,151.32l.14,0c7.26-2,5-4.17,3.62-14.31.16,4-.37,6.15-12.36,6.38-16.43.31-31.77.13-44.91-1.63,1.81.34,3.89.67,6.31,1,10.47,1.59,38.41,4.53,43.93,5.6C63.61,149.27,65,150.43,62.22,151.32Z"/><path class="cls-6" d="M51.24,121.14c3.24.49,2.63,1,1.41,1.4h0l1-.22h0c6.49-1.31,7.44-2.17,15.06,3.83l3-14.74S56,102.73,56.2,104c1.16,7.42,2.23,13.62-6.51,13-.87-.06-1.54-.1-2.11-.12-8.65-.48-20.42-.84-26.45-2.64,1.58.56,3.26,1.08,4.87,1.48C31.14,117,46.19,120.36,51.24,121.14Z"/><path class="cls-6" d="M95.54,137.89c13.74-.08,35.17-3.59,63-3.59V119.43l-88,8.17C77.85,135,85.12,138,95.54,137.89Z"/><path class="cls-6" d="M201.06,28.91c-.37-5.8,6.56-19.63,8.68-23.21l-.48.72C205,13,199.84,21.44,197,26.52c-2.22,4-3.77,4.63-6.63,4.07,7.08,2.08,13.42,4.85,16.59,7C203.64,35.25,201.23,31.66,201.06,28.91Z"/><path class="cls-6" d="M243.48,68.76h0c-1.14-1.94-.68-2.32-2.15-9.55-1.18-5.81-2.48-11.06-3.85-15.85,2.73,11.58,1.34,15.52-1.49,13.26l-.13-.09a71.54,71.54,0,0,0-12-7.4C233.16,55.34,241.1,64.58,243.48,68.76Z"/><path class="cls-6" d="M245,167.42a.17.17,0,0,0,0-.07c1-6.07,1.48-11.47,1.48-11.47-6.19,16.77-32.66,48.74-74,54.85,2.15-.23,4.21-.52,6.25-.81,23.61-4.24,43.93-15.37,56.58-28.13A23,23,0,0,1,247,175.33c12.9-2.71,35.8-6.63,41.91-7.69l.83-.16c-7.29,1.23-20.25,2-30,2.59C250.61,170.63,244.5,171.21,245,167.42Z"/><path class="cls-6" d="M263.48,143.35c-12-.23-12.53-2.37-12.37-6.38-1.37,10.14-3.64,12.35,3.63,14.31l.13,0c-2.74-.89-1.39-2,3.28-3,5.52-1.07,33.45-4,43.92-5.6,2.43-.37,4.51-.7,6.31-1C295.24,143.48,279.9,143.66,263.48,143.35Z"/><path class="cls-6" d="M263.48,122.32h0l1,.22h0c-1.21-.37-1.82-.91,1.41-1.4,5.06-.78,20.1-4.19,25.25-5.48,1.61-.4,3.29-.92,4.86-1.48-6,1.8-17.8,2.16-26.44,2.64-.57,0-1.24.06-2.11.12-8.75.67-7.68-5.53-6.51-13,.2-1.26-15.51,7.42-15.51,7.42l3,14.74C256,120.15,257,121,263.48,122.32Z"/><path class="cls-6" d="M246.53,127.6l-88-8.17V134.3c27.84,0,49.26,3.51,63,3.59C232,138,239.25,135,246.53,127.6Z"/></g><path class="cls-2" d="M259.36,78.24A10.72,10.72,0,0,0,250,73.67h-183a10.7,10.7,0,0,0-9.33,4.57c-2.06,2.67-2,5.86-2,8.65V97.51c0,5.68.9,16.92,10,26S85,134.3,93.35,134.3h130.4c8.34,0,18.43-1.67,27.57-10.77s10-20.34,10-26V86.89C261.35,84.1,261.41,80.91,259.36,78.24Z"/><rect class="cls-7" x="86.45" y="97.83" width="144.2" height="8.81" rx="4.41"/><path class="cls-2" d="M279.81,216.93a19,19,0,0,0-7.38-11.75,13.29,13.29,0,0,0,.46-7.14c-1.86-10-11.67-17.76-22.33-17.76H214.37a19.33,19.33,0,0,0-14.14,5.89,16.9,16.9,0,0,0-3.4,5.51,21,21,0,0,0-18.92-11.4h-50.1a2.23,2.23,0,0,0-2.22,2.11l-.89,17.78-5.31-10.49-.06,0a17,17,0,0,0-2.47-3.54,19.32,19.32,0,0,0-14.13-5.89H66.54c-10.67,0-20.48,7.8-22.34,17.77a13.26,13.26,0,0,0,.46,7.13,19.06,19.06,0,0,0-7.38,11.75A17.54,17.54,0,0,0,40.8,231.5a17.19,17.19,0,0,0,4.44,3.67c5.65,3.41,22.57,13.72,22.57,13.72H249.29s16.91-10.31,22.57-13.72a17,17,0,0,0,4.43-3.67A17.54,17.54,0,0,0,279.81,216.93Z"/><path class="cls-7" d="M141.34,214.62h37.59c9.4,0,16.49-7.18,16-15.65s-8.17-14.87-17-14.87H129.34l-.62,12.25h49.6a2.87,2.87,0,0,1,2.94,2.62,2.65,2.65,0,0,1-2.77,2.65H141.71c-9.11,0-17,6.88-17.46,15.79l-.93,16.65h70.23l-.77-13.83H138.23l.09-2.82A3,3,0,0,1,141.34,214.62Z"/><path class="cls-7" d="M113.7,206.43a10.48,10.48,0,0,0,3.87-7.69c.56-8.24-6.13-14.64-14.85-14.64H66.54c-8.7,0-17,6.39-18.58,14.64-.63,3.4.18,5.89,1.91,7.69A15.73,15.73,0,0,0,41,217.65c-1.71,8.88,4.52,16.41,14.07,16.41h46.31c9.56,0,17.69-7.54,18.26-16.41A11.47,11.47,0,0,0,113.7,206.43ZM65.08,196.35h36a2.66,2.66,0,0,1,2.82,2.85,3.36,3.36,0,0,1-3.38,2.87H64.18a2.49,2.49,0,0,1-2.65-2.87A3.64,3.64,0,0,1,65.08,196.35Zm37.09,23.88H57.88a2.59,2.59,0,0,1-2.69-3.06,3.83,3.83,0,0,1,3.69-3h43.85a2.8,2.8,0,0,1,2.91,3A3.49,3.49,0,0,1,102.17,220.23Z"/><path class="cls-7" d="M267.22,206.43c1.74-1.8,2.54-4.29,1.91-7.69-1.54-8.25-9.87-14.64-18.57-14.64H214.37c-8.71,0-15.41,6.4-14.84,14.64a10.41,10.41,0,0,0,3.87,7.69,11.45,11.45,0,0,0-6,11.22c.56,8.87,8.69,16.41,18.25,16.41H262c9.54,0,15.77-7.53,14.07-16.41A15.77,15.77,0,0,0,267.22,206.43ZM216,196.35h36a3.63,3.63,0,0,1,3.55,2.85,2.48,2.48,0,0,1-2.64,2.87H216.59a3.37,3.37,0,0,1-3.38-2.87A2.67,2.67,0,0,1,216,196.35Zm43.18,23.88H214.92a3.5,3.5,0,0,1-3.47-3.06,2.8,2.8,0,0,1,2.92-3h43.85a3.81,3.81,0,0,1,3.68,3A2.58,2.58,0,0,1,259.21,220.23Z"/><path class="cls-8" d="M17.47,283.21l15.29-34.33a.92.92,0,0,1,.84-.55H283.49a.9.9,0,0,1,.84.55l15.29,34.33a.63.63,0,0,1-.58.89h-281A.63.63,0,0,1,17.47,283.21Z"/><path class="cls-9" d="M60.11,259.61a10.38,10.38,0,0,0-9.35,7c-1.47,4.07.27,7.29,4.84,7.29a9.58,9.58,0,0,0,6.88-3l-2.26-1.65a5.2,5.2,0,0,1-3.47,1.38c-1.83,0-3-.78-2.9-2.59H63.92a9.5,9.5,0,0,0,.58-1.43C65.73,262.65,64,259.61,60.11,259.61Zm1.37,5.69H54.73a5,5,0,0,1,4.37-2.67A2.18,2.18,0,0,1,61.48,265.3ZM78.57,260l-.41,1.53a3.87,3.87,0,0,0-3.73-1.89c-3.45,0-7.23,3-8.45,7s.74,7.29,4.37,7.29a7.14,7.14,0,0,0,5-2.05l-.45,1.66h3.5L81.93,260Zm-1.79,6.6a5.13,5.13,0,0,1-4.8,3.85c-2.13,0-3.25-1.57-2.57-3.85a5.1,5.1,0,0,1,4.74-3.76C76.25,262.81,77.39,264.32,76.78,266.57Zm9.53-12.42-4.85,19.32H85l4.63-19.32Zm19.29,5.46a5.49,5.49,0,0,0-4.24,1.87,3.11,3.11,0,0,0-3.17-1.87,5.21,5.21,0,0,0-4,1.73l.3-1.37H91.15l-3.1,13.5h3.51l1.69-7.74c.43-2,1.67-3,3.12-3s2,.95,1.69,2.52l-1.66,8.22h3.51l1.48-7.74c.38-2,1.52-3,3-3s2,.95,1.76,2.52l-1.43,8.22h3.5l1.39-8.46C110.16,261.71,108.55,259.61,105.6,259.61Zm13.83,0a8.05,8.05,0,0,0-8,7c-.64,4.07,1.75,7.29,6.32,7.29a7.74,7.74,0,0,0,6.28-3l-2.6-1.65a4.21,4.21,0,0,1-3.19,1.38c-1.83,0-3.2-.78-3.43-2.59h10.08a9,9,0,0,0,.29-1.43C125.67,262.65,123.28,259.61,119.43,259.61Zm-4.23,5.69a3.91,3.91,0,0,1,3.83-2.67A2.75,2.75,0,0,1,122,265.3Zm18.42,8.17h3.76l.51-7.44h7.22l.15-3.51h-7.13l.3-4.29h7.23l.15-3.33H135.13Zm24.2-13.5v1.53a5.16,5.16,0,0,0-4.23-1.89c-3.46,0-6.43,3-6.58,7s2.72,7.29,6.34,7.29a5.36,5.36,0,0,0,4.44-2.05v1.66h3.51l-.12-13.5Zm-3.77,10.45a3.54,3.54,0,0,1-3.61-3.85,3.66,3.66,0,0,1,3.73-3.76,3.55,3.55,0,0,1,3.64,3.76A3.67,3.67,0,0,1,154.05,270.42Zm17.27-10.81a4.3,4.3,0,0,0-3.82,1.81l0-1.45H164.1l.26,13.5h3.51l-.23-7.44c-.07-2.32,1.14-3.3,2.79-3.3a2.6,2.6,0,0,1,2.73,2.74l.39,8h3.51l-.51-8.43C176.34,261.53,174.07,259.61,171.32,259.61Zm25.19,2.91h-7.13l-.45-4.29h7.24l-.43-3.33H185.06l1.7,18.57h3.76l-.78-7.44H197Zm16.19,4.05a8.22,8.22,0,0,0-7.83-7c-4.07,0-6.45,3-5.92,7a8.34,8.34,0,0,0,8.45,7.29c2.62,0,4.47-1.1,5.4-3l-3.08-1.65a3.08,3.08,0,0,1-2.79,1.38,4.22,4.22,0,0,1-4.18-2.59h10.08A7.24,7.24,0,0,0,212.7,266.57Zm-10.39-1.27a2.74,2.74,0,0,1,3-2.67,3.93,3.93,0,0,1,3.71,2.67ZM217,263.68c-.14-.71.47-1.08,1.31-1.08a2.84,2.84,0,0,1,2.38,1.35l2.55-1.59a7,7,0,0,0-5.53-2.75c-2.68,0-4.67,1.47-4.17,4.15.87,4.74,7.56,3.65,8,5.64.17.8-.51,1.19-1.61,1.19a3.25,3.25,0,0,1-3-1.79l-2.68,1.73a7.2,7.2,0,0,0,6.33,3.33c2.91,0,5.15-1.46,4.49-4.46C224,264.42,217.43,265.65,217,263.68Zm14.25,5.12-1.35-5.59h3L232.1,260h-2.94l-.86-3.57-3.08,1,.59,2.58h-2.26l.71,3.24h2.29l1.28,5.59c.86,3.74,2.87,5.23,7.66,4.67l-.82-3.27C232.7,270.31,231.64,270.28,231.29,268.8Zm3.06-8.83,3.48,13.5h3.51L237.7,260Zm1.26-1.54a1.51,1.51,0,0,0,1.52-2,2.86,2.86,0,0,0-2.58-2,1.52,1.52,0,0,0-1.5,2A2.83,2.83,0,0,0,235.61,258.43Zm13.2,10.86L242.88,260h-3.69l8.88,13.5h4l.83-13.5h-3.7ZM263.75,260l.55,1.53a7.42,7.42,0,0,0-4.91-1.89c-3.46,0-5.35,3-4.07,7s5.35,7.29,9,7.29c2,0,3.18-.79,3.71-2.05l.59,1.66h3.51l-5-13.5Zm0,10.45a5.52,5.52,0,0,1-5-3.85c-.75-2.25.3-3.76,2.37-3.76a5.55,5.55,0,0,1,5,3.76C266.94,268.85,265.91,270.42,263.75,270.42Zm7.36-16.27h-3.29l7.34,19.32h3.51ZM53,260H43.71l-5.28,13.5h3.51l4-10.64h6Z"/><path class="cls-2" d="M347.36,77.84a9.08,9.08,0,0,1,9.33-9.26,8.79,8.79,0,0,1,7.68,4.26l-2.55,1.48a5.7,5.7,0,0,0-5.13-2.88,6.4,6.4,0,1,0,0,12.8,5.68,5.68,0,0,0,5.13-2.88l2.55,1.45a8.75,8.75,0,0,1-7.68,4.29A9.08,9.08,0,0,1,347.36,77.84Z"/><path class="cls-2" d="M377.64,84v2.81H366.8V68.91h10.72v2.81h-7.78v4.64h7.14v2.78h-7.14V84Z"/><path class="cls-2" d="M390.53,84v2.81h-10.2V68.91h2.93V84Z"/><path class="cls-2" d="M403.54,84v2.81H392.7V68.91h10.71v2.81h-7.77v4.64h7.14v2.78h-7.14V84Z"/><path class="cls-2" d="M419.23,81.67a5.15,5.15,0,0,1-5.35,5.1h-7.66V68.91h7.09a5,5,0,0,1,5.23,5,4.37,4.37,0,0,1-1.81,3.65A4.55,4.55,0,0,1,419.23,81.67Zm-10.07-10v4.69h4.15a2.35,2.35,0,0,0,0-4.69Zm7.14,9.84a2.43,2.43,0,0,0-2.42-2.5h-4.72v5h4.72A2.43,2.43,0,0,0,416.3,81.51Z"/><path class="cls-2" d="M428.19,80.26h-3.47v6.51h-2.93V68.91h7.14a5.72,5.72,0,0,1,5.74,5.74,5.63,5.63,0,0,1-3.55,5.18l4.06,6.94H432Zm-3.47-2.63h4.21a3,3,0,0,0,0-6h-4.21Z"/><path class="cls-2" d="M447.81,83.17h-7.6L439,86.77h-3.19l6.48-17.86h3.52l6.45,17.86h-3.16Zm-1-2.75L444,72.36l-2.83,8.06Z"/><path class="cls-2" d="M464.47,71.72h-5v15h-2.93v-15h-5.06V68.91h13Z"/><path class="cls-2" d="M469.58,68.91V86.77h-2.94V68.91Z"/><path class="cls-2" d="M486.8,68.91V86.77h-2.3l-8.41-12.12V86.77h-2.94V68.91h2.3L483.86,81V68.91Z"/><path class="cls-2" d="M507.74,78.76c0,4.87-3.52,8.34-8.75,8.34a9.26,9.26,0,1,1-.15-18.52,9,9,0,0,1,7.78,4.24l-2.52,1.45a6,6,0,0,0-5.26-2.83,6.4,6.4,0,1,0,.18,12.8c3.24,0,5.23-1.68,5.76-4.08h-6V77.53h8.92Z"/><path class="cls-2" d="M515.53,68.91h3.09l3.75,14,4-14h2.71l4,14,3.74-14H540l-5,17.86h-3.39l-3.77-13-3.81,13h-3.39Z"/><path class="cls-2" d="M545.23,68.91V86.77H542.3V68.91Z"/><path class="cls-2" d="M560.41,71.72h-5v15h-2.93v-15H547.4V68.91h13Z"/><path class="cls-2" d="M576.1,68.91V86.77h-2.93V79h-7.65v7.73h-2.94V68.91h2.94v7.32h7.65V68.91Z"/><polygon class="cls-2" points="360.96 180.84 372.67 180.84 372.67 109.58 362.49 109.58 343.75 116.2 346.6 126.17 360.96 122.11 360.96 180.84"/><path class="cls-2" d="M409.82,182.17c17.92,0,28-15,28-37s-10.07-36.95-28-36.95-28,15-28,37S391.9,182.17,409.82,182.17Zm0-62.51c10.58,0,16.29,9.16,16.29,25.55s-5.71,25.56-16.29,25.56-16.29-9.17-16.29-25.56S399.33,119.66,409.82,119.66Z"/><path class="cls-2" d="M471.4,182.17c17.91,0,28-15,28-37s-10.08-36.95-28-36.95-28,15-28,37S453.48,182.17,471.4,182.17Zm0-62.51c10.58,0,16.28,9.16,16.28,25.55s-5.7,25.56-16.28,25.56-16.29-9.17-16.29-25.56S460.91,119.66,471.4,119.66Z"/><polygon class="cls-2" points="519.74 129.94 541.42 165.88 542.85 165.88 564.53 130.04 564.53 180.84 576.24 180.84 576.24 109.58 563.72 109.58 542.14 145.22 520.65 109.58 508.03 109.58 508.03 180.84 519.74 180.84 519.74 129.94"/><polygon class="cls-2" points="395.07 234.69 366.06 234.69 366.06 214.74 396.09 214.74 396.09 203.53 354.35 203.53 354.35 274.8 366.06 274.8 366.06 245.89 395.07 245.89 395.07 234.69"/><path class="cls-2" d="M420.72,203.54,394.86,274.8h12.72l5-14.35h30.34l5,14.35h12.62l-25.75-71.26Zm-4.28,45.91,11.3-32.17L439,249.45Z"/><polygon class="cls-2" points="508.36 251.9 474.76 203.53 465.6 203.53 465.6 274.8 477.31 274.8 477.31 226.44 510.9 274.8 520.07 274.8 520.07 203.53 508.36 203.53 508.36 251.9"/><path class="cls-2" d="M556,233.57c-10.39-3.26-14.36-5.6-14.36-11.1s4.38-8.86,11.2-8.86c7.94,0,12.42,4.28,15,10l9.87-5.7a26.45,26.45,0,0,0-24.84-15.68c-12,0-22.9,7.43-22.9,20.57,0,13.44,10.79,17.51,21.88,20.87C562.4,246.9,568,249,568,255.35c0,5.2-4,9.37-13.23,9.37-9.68,0-15.18-4.79-17.72-12L527,258.61c3.77,10.59,13.44,17.51,27.49,17.51,14.86,0,25.25-7.94,25.25-21C579.71,241,567.8,237.34,556,233.57Z"/><rect class="cls-10" x="686.77" y="71.48" width="2.8" height="201.74" transform="translate(1376.34 344.71) rotate(180)"/><rect class="cls-1" x="800.1" y="75.53" width="646.24" height="193.64"/><path class="cls-11" d="M1173.41,166.45c0-11.84,10.95-19.8,21.18-19.8,12.43,0,20.15,8.77,20.15,22.89v53.6h14.07V167.83c0-10.24,5.65-21.18,21.52-21.18,12.34,0,20.32,9,20.32,22.89v53.6h14.07v-53.6c0-22.27-12.52-36.11-32.68-36.11-11.87,0-22.13,5.11-28.54,14.1-4.21-6.86-12-14.1-26.34-14.1-9.66,0-17.94,3.44-23.75,9.78v-8.58h-14.07v88.51h14.07Z"/><path class="cls-11" d="M1012.46,177.59c-.08-13.38-4.28-24.71-12.14-32.76-7.4-7.57-17.74-11.74-29.11-11.74-25.8,0-44.52,19.22-44.52,45.71,0,26.82,18.17,45.54,44.17,45.54,17.24,0,30.66-7.42,38.83-21.48l.7-1.21-12.06-7.75-.77,1.31c-6.37,10.86-14.85,15.92-26.7,15.92-16.5,0-29.18-12.36-30-29h71.64Zm-71-8.14a30,30,0,0,1,29.4-23.14c14,0,24.81,9.23,27.28,23.14Z"/><polygon class="cls-11" points="881.03 147.85 921.33 147.85 921.33 134.63 866.95 134.63 866.95 223.31 881.03 223.31 881.03 147.85"/><path class="cls-11" d="M1340.89,224.34c17.24,0,30.66-7.42,38.83-21.48l.7-1.21-12.06-7.75-.77,1.31c-6.37,10.86-14.85,15.92-26.7,15.92-16.5,0-29.18-12.36-30-29h71.64v-4.56c-.09-13.38-4.28-24.71-12.14-32.76-7.4-7.57-17.74-11.74-29.11-11.74-25.8,0-44.52,19.22-44.52,45.71C1296.72,205.62,1314.89,224.34,1340.89,224.34Zm-29.39-54.89a30,30,0,0,1,29.39-23.14c14,0,24.81,9.23,27.28,23.14Z"/><rect class="cls-11" x="1127" y="108.49" width="14.07" height="114.65"/><path class="cls-11" d="M1067.49,224.69a42.89,42.89,0,0,0,27.35-9.48v8.1h13.9v-88.5h-13.9V143a43.36,43.36,0,0,0-27.35-9.52c-12.58,0-24,4.68-32.27,13.18s-12.58,19.95-12.58,32.53,4.47,24.11,12.59,32.45S1054.9,224.69,1067.49,224.69Zm-30.78-45.55c0-18,12.94-31.63,30.09-31.63,17.8,0,29.75,12.71,29.75,31.63s-12,31.47-29.75,31.47C1049.65,210.61,1036.71,197.08,1036.71,179.14Z"/></svg>