<svg xmlns="http://www.w3.org/2000/svg" viewBox="0 0 197.25 31.12"><polygon points="187.79 9.23 188.74 12.53 193.52 11.12 193.52 30.68 197.25 30.68 197.25 7 194.27 7 187.79 9.23"/><polygon points="176.12 9.23 177.06 12.53 181.84 11.12 181.84 30.68 185.57 30.68 185.57 7 182.59 7 176.12 9.23"/><path d="M103.15,6.67a9.14,9.14,0,0,0-7.64,3.77,7.8,7.8,0,0,0-7.06-3.77,8.38,8.38,0,0,0-6.36,2.62V7H78.32V30.7h3.77V15.51c0-3.17,2.93-5.3,5.67-5.3,3.33,0,5.4,2.35,5.4,6.13V30.7h3.77V15.88c0-2.74,1.51-5.67,5.76-5.67,3.31,0,5.44,2.41,5.44,6.13V30.7h3.77V16.34C111.9,10.37,108.55,6.67,103.15,6.67Z" transform="translate(0 0.01)"/><path d="M27.93,6.58C21,6.58,16,11.73,16,18.82S20.87,31,27.83,31a11.38,11.38,0,0,0,10.4-5.75l.19-.33-3.23-2.08L35,23.2a7.69,7.69,0,0,1-7.15,4.26,8,8,0,0,1-8-7.76H39V18.5a12.38,12.38,0,0,0-3.26-8.78A10.73,10.73,0,0,0,27.93,6.58Zm-8,9.74a8,8,0,0,1,7.87-6.2,7.23,7.23,0,0,1,7.31,6.2Z" transform="translate(0 0.01)"/><polygon points="0 30.75 3.77 30.75 3.77 10.54 14.57 10.54 14.57 7 0 7 0 30.75"/><path d="M127,6.58c-6.91,0-11.92,5.15-11.92,12.24S120,31,127,31a11.38,11.38,0,0,0,10.4-5.75l.19-.33-3.23-2.08-.21.36A7.7,7.7,0,0,1,127,27.48a8,8,0,0,1-8-7.76h19.19V18.5a12.38,12.38,0,0,0-3.25-8.78A10.75,10.75,0,0,0,127,6.58Zm-8,9.74a8,8,0,0,1,7.87-6.2,7.23,7.23,0,0,1,7.31,6.2Z" transform="translate(0 0.01)"/><rect x="69.66" width="3.77" height="30.71"/><path d="M61,9.22a11.66,11.66,0,0,0-7.32-2.55A11.9,11.9,0,0,0,45,10.2a12.44,12.44,0,0,0-3.37,8.71A12.29,12.29,0,0,0,45,27.6a11.88,11.88,0,0,0,8.65,3.51A11.46,11.46,0,0,0,61,28.57v2.17h3.73V7H61ZM53.53,27.34a8.07,8.07,0,0,1-8.07-8.07c0-.12,0-.24,0-.36,0-4.83,3.47-8.47,8.06-8.47,4.77,0,8,3.4,8,8.47S58.3,27.34,53.53,27.34Z" transform="translate(0 0.01)"/><path d="M171.47,24.34a8,8,0,0,1-6.37,3.05,8.31,8.31,0,0,1-8.63-8,5.61,5.61,0,0,1,0-.58,8.33,8.33,0,0,1,8.06-8.59h.57a7.87,7.87,0,0,1,6.22,2.89l3.27-1.89a11.85,11.85,0,0,0-9.49-4.67A12,12,0,0,0,152.74,18.2v.63A12,12,0,0,0,164.46,31.1h.64a11.76,11.76,0,0,0,9.61-4.87Z" transform="translate(0 0.01)"/></svg>