<svg xmlns="http://www.w3.org/2000/svg" viewBox="0 0 191.21 24.81"><defs><style>.cls-1{fill:#ffffff;}</style></defs><path class="cls-1" d="M140.43,16c0,5-3.61,8.55-9,8.55A9.42,9.42,0,0,1,121.71,15a9.41,9.41,0,0,1,9.59-9.49,9.18,9.18,0,0,1,8,4.34l-2.59,1.49a6.09,6.09,0,0,0-5.39-2.9,6.38,6.38,0,0,0-6.58,6.59,6.39,6.39,0,0,0,6.77,6.53c3.32,0,5.36-1.72,5.91-4.18h-6.12V14.71h9.15Z"/><polygon class="cls-1" points="154.02 8.75 148.87 8.75 148.87 24.17 145.87 24.17 145.87 8.75 140.69 8.75 140.69 5.87 154.02 5.87 154.02 8.75"/><path class="cls-1" d="M65.44,12.38A4.46,4.46,0,0,1,70,8.15c2.65,0,4.3,1.87,4.3,4.89V24.48h3V12.67a4.23,4.23,0,0,1,4.6-4.52c2.64,0,4.34,1.92,4.34,4.89V24.48h3V13c0-4.76-2.67-7.71-7-7.71a7.3,7.3,0,0,0-6.1,3,6.2,6.2,0,0,0-5.62-3,6.71,6.71,0,0,0-5.08,2.08V5.58h-3v18.9h3Z"/><path class="cls-1" d="M31.07,14.76a9.81,9.81,0,0,0-2.59-7,8.58,8.58,0,0,0-6.22-2.51c-5.5,0-9.5,4.11-9.5,9.76s3.88,9.73,9.43,9.73a9.06,9.06,0,0,0,8.29-4.59l.15-.26-2.57-1.65-.17.28a6.15,6.15,0,0,1-5.7,3.4,6.36,6.36,0,0,1-6.42-6.19h15.3ZM15.91,13a6.41,6.41,0,0,1,6.28-4.94A5.76,5.76,0,0,1,28,13Z"/><polygon class="cls-1" points="3.01 8.4 11.61 8.4 11.61 5.58 0 5.58 0 24.52 3.01 24.52 3.01 8.4"/><path class="cls-1" d="M101.21,24.74a9.06,9.06,0,0,0,8.29-4.59l.15-.26-2.58-1.65-.16.28a6.15,6.15,0,0,1-5.7,3.4,6.36,6.36,0,0,1-6.42-6.19h15.3v-1a9.86,9.86,0,0,0-2.59-7,8.58,8.58,0,0,0-6.22-2.51c-5.5,0-9.5,4.11-9.5,9.76s3.88,9.73,9.43,9.73M94.93,13a6.4,6.4,0,0,1,6.28-4.94A5.77,5.77,0,0,1,107,13Z"/><rect class="cls-1" x="55.53" width="3" height="24.48"/><path class="cls-1" d="M42.82,24.81a9.2,9.2,0,0,0,5.85-2v1.73h3V5.62h-3V7.36a9.28,9.28,0,0,0-5.85-2,9.46,9.46,0,0,0-6.88,2.81,9.87,9.87,0,0,0-2.69,7A9.84,9.84,0,0,0,35.94,22a9.48,9.48,0,0,0,6.88,2.79m-6.57-9.72a6.46,6.46,0,0,1,6.43-6.76c3.8,0,6.35,2.72,6.35,6.76s-2.55,6.72-6.35,6.72a6.44,6.44,0,0,1-6.43-6.72"/><path class="cls-1" d="M170.22,13.58l-1.67,0,.21-2.64h4.36l.31-1.29h-5.86L167.14,15h3.05A2.24,2.24,0,0,1,172.24,16a1.85,1.85,0,0,1-.71,2.45,4.68,4.68,0,0,1-2.93.45,6.38,6.38,0,0,1-1.26-.24L167,20a9.06,9.06,0,0,0,2.69.4,4.37,4.37,0,0,0,3.69-1.85,3.23,3.23,0,0,0-.55-4,3.86,3.86,0,0,0-2.64-1"/><path class="cls-1" d="M180.57,16.23h3.24c-.27,1.59-1.57,2.8-3.76,2.8a4,4,0,0,1-4.21-4.12A4,4,0,0,1,180,10.78a3.81,3.81,0,0,1,3.37,1.86s1-1,1-1A5.31,5.31,0,0,0,180,9.42a5.49,5.49,0,1,0,0,11c3.19,0,5.19-2.11,5.19-4.81V15h-5.3Z"/><path class="cls-1" d="M187.55,5.28h-23.9A3.65,3.65,0,0,0,160,8.93v12a3.66,3.66,0,0,0,3.66,3.66h23.9a3.66,3.66,0,0,0,3.66-3.66v-12a3.65,3.65,0,0,0-3.66-3.65m2.35,15.61a2.35,2.35,0,0,1-2.35,2.35h-23.9a2.35,2.35,0,0,1-2.35-2.35v-12a2.35,2.35,0,0,1,2.35-2.34h23.9a2.35,2.35,0,0,1,2.35,2.34Z"/></svg>