<svg xmlns="http://www.w3.org/2000/svg" xmlns:xlink="http://www.w3.org/1999/xlink" viewBox="0 0 54 54"><defs><style>.cls-1,.cls-2,.cls-4{fill:none;}.cls-2{clip-rule:evenodd;}.cls-3{clip-path:url(#clip-path);}.cls-4{stroke:#fff;stroke-miterlimit:10;stroke-width:4px;}.cls-5{clip-path:url(#clip-path-2);}.cls-6{fill:#fff;}</style><clipPath id="clip-path"><rect class="cls-1" x="-1253" y="-2197" width="2560" height="33374"/></clipPath><clipPath id="clip-path-2"><path class="cls-2" d="M35.24,29.31,24.51,35.22a2,2,0,0,1-2.72-.79,2.06,2.06,0,0,1-.25-1V20.78a2,2,0,0,1,2-2,2,2,0,0,1,1.07.31l10.73,6.77a2,2,0,0,1-.1,3.45Z"/></clipPath></defs><g class="cls-3"><path class="cls-4" d="M27,52A25,25,0,0,0,51.6,31.48,25.39,25.39,0,0,0,52,27,25,25,0,1,0,27,52Z"/></g><g class="cls-5"><g class="cls-3"><rect class="cls-6" x="16.54" y="13.78" width="24.73" height="26.69"/></g></g></svg>