<svg xmlns="http://www.w3.org/2000/svg" viewBox="0 0 3110.53 288.23"><defs><style>.cls-1{fill:#000;}</style></defs><path class="cls-1" d="M1499.61,209.78c0,41.44-33.28,73.25-75.09,73.25H1312.8v-259h103.59c40.32,0,72.5,30.72,72.5,70.66a64.39,64.39,0,0,1-28.11,54C1484.09,159.85,1499.61,181.67,1499.61,209.78ZM1347.2,56.26v79.16h69.19c21.45,0,38.47-17.38,38.47-39.57,0-21.83-17-39.59-38.47-39.59Zm118.38,152.41c0-23.3-18.12-41.79-41.06-41.79H1347.2v84h77.32C1447.46,250.84,1465.58,232.35,1465.58,208.67Z"/><path class="cls-1" d="M1698.69,83.15V283h-34.78V254.25c-14.79,23.58-36.77,34-64.76,34-46.77,0-77.54-31.18-77.54-82.35V83.15h34.77V203.88c0,32.77,18.79,51.17,49.57,51.17,32,0,58-18.79,58-66V83.15Z"/><path class="cls-1" d="M1937.8,3.21V283H1903V248.66c-16,24.38-41.57,39.57-75.55,39.57-55.57,0-101.14-46-101.14-105.14S1771.89,78,1827.46,78c34,0,59.56,15.19,75.55,39.58V3.21ZM1903,183.09c0-40.77-30.78-71.55-71.16-71.55-40,0-70.75,30.78-70.75,71.55s30.78,71.55,70.75,71.55C1872.23,254.64,1903,223.86,1903,183.09Z"/><path class="cls-1" d="M2118.13,228.27c0,37.18-32,60-74.75,60-40,0-68-19.19-79.55-46.77l30-17.19c6.39,19.19,24.79,31.18,49.57,31.18,21.19,0,39.58-7.6,39.58-27.18,0-42.79-111.93-18.4-111.93-90.74,0-35.19,30.37-59.57,70.75-59.57,32.78,0,59.17,15.59,72,41.58l-29.19,16.38c-7.59-18-25.18-25.58-42.77-25.58-18,0-35.58,8.79-35.58,26.78C2006.2,179.89,2118.13,154.72,2118.13,228.27Z"/><path class="cls-1" d="M2382.14,225H2265.61L2244.53,283H2207.9l96.55-259h38.85l96.54,259h-36.61Zm-11.84-32.19L2323.69,65.14l-46.25,127.62Z"/><path class="cls-1" d="M2450.23,23.6A23.64,23.64,0,0,1,2473.81,0C2486.6,0,2497,10.8,2497,23.6a23.39,23.39,0,0,1-46.77,0Zm6,59.55H2491V283h-34.77Z"/><path class="cls-1" d="M2627.34,79.56v36.37c-30-1.2-62.36,14-62.36,61.17V283h-34.77V83.15H2565v33.58C2577.77,88.75,2602.15,79.56,2627.34,79.56Z"/><path class="cls-1" d="M692.3,155.13c0-26.76,24.73-44.73,47.83-44.73,28.07,0,45.51,19.81,45.51,51.71V283.19h31.8v-125c0-23.12,12.77-47.83,48.61-47.83,27.88,0,45.9,20.29,45.9,51.71V283.19h31.79V162.11c0-50.32-28.29-81.57-73.82-81.57-26.81,0-50,11.53-64.48,31.84-9.5-15.5-27.18-31.84-59.5-31.84-21.83,0-40.54,7.77-53.64,22.08V83.25H660.5V283.19h31.8Z"/><path class="cls-1" d="M328.7,180.29c-.19-30.24-9.68-55.83-27.43-74-16.7-17.1-40.06-26.52-65.76-26.52C177.24,79.76,135,123.19,135,183c0,60.57,41,102.87,99.77,102.87,38.93,0,69.26-16.77,87.71-48.52l1.59-2.73-27.26-17.52-1.74,3C280.66,244.62,261.5,256,234.73,256c-37.27,0-65.92-27.9-67.88-65.45H328.7ZM168.32,161.9c7.64-31,34.41-52.28,66.41-52.28,31.69,0,56,20.85,61.63,52.28Z"/><polygon class="cls-1" points="31.8 113.11 122.84 113.11 122.84 83.25 0 83.25 0 283.58 31.8 283.58 31.8 113.11"/><path class="cls-1" d="M1070.63,285.9c38.93,0,69.26-16.77,87.71-48.52l1.59-2.73-27.25-17.52-1.75,3c-14.37,24.52-33.53,35.94-60.3,35.94-37.27,0-65.92-27.9-67.87-65.45H1164.6v-10.3c-.19-30.24-9.68-55.83-27.43-74-16.7-17.1-40.06-26.52-65.76-26.52-58.27,0-100.55,43.43-100.55,103.27C970.86,243.6,1011.89,285.9,1070.63,285.9Zm-66.41-124c7.64-31,34.41-52.28,66.41-52.28,31.69,0,56,20.85,61.63,52.28Z"/><rect class="cls-1" x="587.46" y="24.2" width="31.8" height="258.99"/><path class="cls-1" d="M453,286.68c23.22,0,45.31-7.73,61.79-21.4v18.3h31.4V83.64H514.8V102C498,88.29,475.93,80.54,453,80.54c-28.42,0-54.31,10.57-72.89,29.77-18.33,18.95-28.43,45.05-28.43,73.49s10.1,54.45,28.44,73.3C398.68,276.17,424.57,286.68,453,286.68ZM383.48,183.8c0-40.74,29.23-71.47,68-71.47,40.2,0,67.21,28.72,67.21,71.47,0,42.52-27,71.08-67.21,71.08C412.71,254.88,383.48,224.32,383.48,183.8Z"/><path class="cls-1" d="M2820.85,85.38h-49.4v134h22v-46h27.37c25.26,0,44.41-19.33,44.41-44C2865.26,104.51,2846.11,85.38,2820.85,85.38Zm0,67.38h-27.37V106.05h27.37c13,0,22.39,9.75,22.39,23.35C2843.24,142.8,2833.86,152.76,2820.85,152.76Zm110.38-30.83v22.4c-13.59-1-29.48,5.36-29.48,26.8v48.24h-20.69V123.66h20.69v16.07C2907.49,126.72,2919.15,121.93,2931.23,121.93Zm56.06-.76c-27.95,0-50.54,21.82-50.54,50.34a50.09,50.09,0,0,0,50.54,50.35c28.14,0,50.52-22,50.52-50.35C3037.81,143,3015.43,121.17,2987.29,121.17Zm0,80.59c-16.85,0-29.86-12.83-29.86-30.25s13-30.25,29.86-30.25,29.86,12.83,29.86,30.25S3004.14,201.76,2987.29,201.76ZM3060,24.2H2740.08a50.52,50.52,0,0,0-50.52,50.51v157.8A50.52,50.52,0,0,0,2740.08,283H3060a50.52,50.52,0,0,0,50.52-50.52V74.71A50.52,50.52,0,0,0,3060,24.2Zm30.2,208.31a30.24,30.24,0,0,1-30.2,30.21H2740.08a30.24,30.24,0,0,1-30.2-30.21V74.71a30.24,30.24,0,0,1,30.2-30.2H3060a30.24,30.24,0,0,1,30.2,30.2Z"/></svg>