<svg xmlns="http://www.w3.org/2000/svg" viewBox="0 0 240.01 36.62"><defs><style>.cls-1{fill:#050101;}</style></defs><path class="cls-1" d="M96.6,18.27c0-3.74,3.45-6.24,6.67-6.24,3.92,0,6.35,2.76,6.35,7.21v16.9h4.44V18.7c0-3.23,1.78-6.67,6.78-6.67,3.89,0,6.4,2.83,6.4,7.21v16.9h4.44V19.24c0-7-4-11.38-10.3-11.38a10.79,10.79,0,0,0-9,4.44,9.15,9.15,0,0,0-8.3-4.44,9.85,9.85,0,0,0-7.48,3.08V8.24H92.16v27.9H96.6Z"/><path class="cls-1" d="M45.86,21.78A14.54,14.54,0,0,0,42,11.45a12.69,12.69,0,0,0-9.18-3.7c-8.13,0-14,6.06-14,14.41s5.73,14.36,13.92,14.36c5.44,0,9.67-2.34,12.24-6.78l.22-.38-3.8-2.44-.24.41c-2,3.43-4.68,5-8.42,5a9.37,9.37,0,0,1-9.47-9.13H45.86ZM23.49,19.21a9.45,9.45,0,0,1,9.26-7.29,8.51,8.51,0,0,1,8.6,7.29Z"/><polygon class="cls-1" points="4.44 12.41 17.14 12.41 17.14 8.24 0 8.24 0 36.19 4.44 36.19 4.44 12.41"/><path class="cls-1" d="M149.39,36.52c5.43,0,9.66-2.34,12.23-6.78l.23-.38L158,26.92l-.24.41c-2,3.43-4.68,5-8.41,5a9.37,9.37,0,0,1-9.47-9.13H162.5V21.78a14.55,14.55,0,0,0-3.83-10.33,12.68,12.68,0,0,0-9.17-3.7c-8.14,0-14,6.06-14,14.41s5.73,14.36,13.93,14.36m-9.27-17.31a9.46,9.46,0,0,1,9.27-7.29,8.51,8.51,0,0,1,8.6,7.29Z"/><rect class="cls-1" x="81.97" width="4.44" height="36.14"/><path class="cls-1" d="M63.21,36.62a13.52,13.52,0,0,0,8.62-3v2.55h4.38V8.29H71.83v2.57a13.64,13.64,0,0,0-8.62-3A14,14,0,0,0,53,12a14.58,14.58,0,0,0-4,10.25A14.53,14.53,0,0,0,53,32.5a14,14,0,0,0,10.17,4.12m-9.7-14.35c0-5.69,4.07-10,9.48-10,5.61,0,9.38,4,9.38,10S68.6,32.19,63,32.19c-5.41,0-9.48-4.27-9.48-9.92"/><path class="cls-1" d="M194.28,32.25a9.78,9.78,0,0,1-10.15-10.08,9.8,9.8,0,0,1,10.15-10.11,9.19,9.19,0,0,1,7.31,3.41l3.86-2.23a13.9,13.9,0,0,0-11.17-5.5,14.18,14.18,0,0,0-14.55,14.43A14.17,14.17,0,0,0,194.28,36.6a13.8,13.8,0,0,0,11.28-5.68l-3.82-2.24a9.37,9.37,0,0,1-7.46,3.57"/><path class="cls-1" d="M215,31.78l6.26-6.22c2.29-2.3,4.93-5.42,4.93-9.18a8.54,8.54,0,0,0-8.79-8.64,9.52,9.52,0,0,0-8.86,5.54l-.15.31,3.66,2.16.18-.37A5.44,5.44,0,0,1,217.48,12a4.19,4.19,0,0,1,4.41,4.44c0,2.28-1.87,4.46-3.71,6.3l-9.64,9.84V36h18.19V31.78Z"/><polygon class="cls-1" points="228.88 10.94 230 14.82 235.62 13.16 235.62 36.17 240.01 36.17 240.01 8.31 236.5 8.31 228.88 10.94"/></svg>