<svg width="577" height="113" viewBox="0 0 577 113" fill="none" xmlns="http://www.w3.org/2000/svg">
<mask id="path-1-outside-1" maskUnits="userSpaceOnUse" x="0.831055" y="0.498047" width="576" height="112" fill="black">
<rect fill="white" x="0.831055" y="0.498047" width="576" height="112"/>
<path d="M62.8992 54.4088C72.4903 60.1437 77.2859 68.4988 77.2859 79.4742C77.2859 89.0653 73.924 96.6295 67.2003 102.167C60.5755 107.704 51.5282 110.472 40.0584 110.472C28.4898 110.472 19.393 107.704 12.7682 102.167C6.14345 96.6295 2.83105 89.0653 2.83105 79.4742C2.83105 68.4988 7.57718 60.1437 17.0694 54.4088C9.85136 49.1683 6.24233 41.9996 6.24233 32.9029C6.24233 23.3118 9.45585 15.8465 15.8829 10.5071C22.4088 5.16774 30.4673 2.49805 40.0584 2.49805C49.6496 2.49805 57.6587 5.16774 64.0857 10.5071C70.5127 15.8465 73.7262 23.3118 73.7262 32.9029C73.7262 42.0985 70.1172 49.2671 62.8992 54.4088ZM49.699 25.0421C47.2271 22.8668 44.0135 21.7792 40.0584 21.7792C36.1033 21.7792 32.8898 22.8668 30.4179 25.0421C27.9459 27.2174 26.71 30.1838 26.71 33.9411C26.71 37.6985 27.9459 40.7142 30.4179 42.9884C32.8898 45.1637 36.1033 46.2514 40.0584 46.2514C44.0135 46.2514 47.2271 45.1637 49.699 42.9884C52.1709 40.7142 53.4069 37.6985 53.4069 33.9411C53.4069 30.1838 52.1709 27.2174 49.699 25.0421ZM27.7482 87.4833C30.9123 89.9552 35.0157 91.1912 40.0584 91.1912C45.1012 91.1912 49.1552 89.9552 52.2204 87.4833C55.3845 84.9125 56.9665 81.3529 56.9665 76.8045C56.9665 72.355 55.3845 68.8943 52.2204 66.4224C49.1552 63.8516 45.1012 62.5662 40.0584 62.5662C35.0157 62.5662 30.9123 63.8516 27.7482 66.4224C24.683 68.8943 23.1504 72.355 23.1504 76.8045C23.1504 81.3529 24.683 84.9125 27.7482 87.4833ZM178.194 110.472C162.572 110.472 149.668 105.281 139.484 94.8991C129.299 84.517 124.207 71.7123 124.207 56.4852C124.207 41.1592 129.299 28.3545 139.484 18.0713C149.668 7.68912 162.572 2.49805 178.194 2.49805C187.588 2.49805 196.239 4.72279 204.15 9.17228C212.159 13.5229 218.388 19.4555 222.837 26.9702L205.188 37.2041C202.617 32.5568 198.959 28.9478 194.212 26.377C189.466 23.7073 184.127 22.3724 178.194 22.3724C168.109 22.3724 159.951 25.5365 153.722 31.8647C147.592 38.1928 144.526 46.3997 144.526 56.4852C144.526 66.4718 147.592 74.6292 153.722 80.9574C159.951 87.2855 168.109 90.4496 178.194 90.4496C184.127 90.4496 189.466 89.1642 194.212 86.5934C199.057 83.9237 202.716 80.3147 205.188 75.7663L222.837 86.0001C218.388 93.5148 212.208 99.4969 204.298 103.946C196.388 108.297 187.686 110.472 178.194 110.472ZM255.878 88.8181H299.632V108.396H235.411V4.57447H298.89V24.1522H255.878V46.2514H295.182V65.5325H255.878V88.8181ZM352.769 4.57447C362.756 4.57447 371.161 7.93631 377.983 14.66C384.806 21.3837 388.217 29.6399 388.217 39.4288C388.217 49.2177 384.806 57.474 377.983 64.1976C371.161 70.9213 362.756 74.2831 352.769 74.2831H334.527V108.396H314.059V4.57447H352.769ZM352.769 55.1503C357.12 55.1503 360.729 53.6672 363.597 50.7008C366.464 47.6356 367.898 43.8783 367.898 39.4288C367.898 34.8804 366.464 31.1231 363.597 28.1568C360.729 25.1904 357.12 23.7073 352.769 23.7073H334.527V55.1503H352.769ZM461.61 108.396V45.0648L417.116 108.396H401.542V4.57447H422.01V68.0539L466.505 4.57447H482.078V108.396H461.61ZM574.605 4.57447V108.396H554.138V72.355H542.421L518.542 108.396H495.553L520.915 70.1303C514.29 67.7572 508.901 63.7032 504.749 57.9683C500.596 52.2334 498.519 45.9053 498.519 38.9839C498.519 29.4916 501.881 21.3837 508.605 14.66C515.328 7.93631 523.486 4.57447 533.077 4.57447H574.605ZM533.077 54.4088H554.138V23.7073H533.077C529.221 23.7073 525.908 25.1904 523.14 28.1568C520.371 31.1231 518.987 34.7321 518.987 38.9839C518.987 43.2356 520.371 46.8941 523.14 49.9593C525.908 52.9256 529.221 54.4088 533.077 54.4088Z"/>
</mask>
<path d="M62.8992 54.4088C72.4903 60.1437 77.2859 68.4988 77.2859 79.4742C77.2859 89.0653 73.924 96.6295 67.2003 102.167C60.5755 107.704 51.5282 110.472 40.0584 110.472C28.4898 110.472 19.393 107.704 12.7682 102.167C6.14345 96.6295 2.83105 89.0653 2.83105 79.4742C2.83105 68.4988 7.57718 60.1437 17.0694 54.4088C9.85136 49.1683 6.24233 41.9996 6.24233 32.9029C6.24233 23.3118 9.45585 15.8465 15.8829 10.5071C22.4088 5.16774 30.4673 2.49805 40.0584 2.49805C49.6496 2.49805 57.6587 5.16774 64.0857 10.5071C70.5127 15.8465 73.7262 23.3118 73.7262 32.9029C73.7262 42.0985 70.1172 49.2671 62.8992 54.4088ZM49.699 25.0421C47.2271 22.8668 44.0135 21.7792 40.0584 21.7792C36.1033 21.7792 32.8898 22.8668 30.4179 25.0421C27.9459 27.2174 26.71 30.1838 26.71 33.9411C26.71 37.6985 27.9459 40.7142 30.4179 42.9884C32.8898 45.1637 36.1033 46.2514 40.0584 46.2514C44.0135 46.2514 47.2271 45.1637 49.699 42.9884C52.1709 40.7142 53.4069 37.6985 53.4069 33.9411C53.4069 30.1838 52.1709 27.2174 49.699 25.0421ZM27.7482 87.4833C30.9123 89.9552 35.0157 91.1912 40.0584 91.1912C45.1012 91.1912 49.1552 89.9552 52.2204 87.4833C55.3845 84.9125 56.9665 81.3529 56.9665 76.8045C56.9665 72.355 55.3845 68.8943 52.2204 66.4224C49.1552 63.8516 45.1012 62.5662 40.0584 62.5662C35.0157 62.5662 30.9123 63.8516 27.7482 66.4224C24.683 68.8943 23.1504 72.355 23.1504 76.8045C23.1504 81.3529 24.683 84.9125 27.7482 87.4833ZM178.194 110.472C162.572 110.472 149.668 105.281 139.484 94.8991C129.299 84.517 124.207 71.7123 124.207 56.4852C124.207 41.1592 129.299 28.3545 139.484 18.0713C149.668 7.68912 162.572 2.49805 178.194 2.49805C187.588 2.49805 196.239 4.72279 204.15 9.17228C212.159 13.5229 218.388 19.4555 222.837 26.9702L205.188 37.2041C202.617 32.5568 198.959 28.9478 194.212 26.377C189.466 23.7073 184.127 22.3724 178.194 22.3724C168.109 22.3724 159.951 25.5365 153.722 31.8647C147.592 38.1928 144.526 46.3997 144.526 56.4852C144.526 66.4718 147.592 74.6292 153.722 80.9574C159.951 87.2855 168.109 90.4496 178.194 90.4496C184.127 90.4496 189.466 89.1642 194.212 86.5934C199.057 83.9237 202.716 80.3147 205.188 75.7663L222.837 86.0001C218.388 93.5148 212.208 99.4969 204.298 103.946C196.388 108.297 187.686 110.472 178.194 110.472ZM255.878 88.8181H299.632V108.396H235.411V4.57447H298.89V24.1522H255.878V46.2514H295.182V65.5325H255.878V88.8181ZM352.769 4.57447C362.756 4.57447 371.161 7.93631 377.983 14.66C384.806 21.3837 388.217 29.6399 388.217 39.4288C388.217 49.2177 384.806 57.474 377.983 64.1976C371.161 70.9213 362.756 74.2831 352.769 74.2831H334.527V108.396H314.059V4.57447H352.769ZM352.769 55.1503C357.12 55.1503 360.729 53.6672 363.597 50.7008C366.464 47.6356 367.898 43.8783 367.898 39.4288C367.898 34.8804 366.464 31.1231 363.597 28.1568C360.729 25.1904 357.12 23.7073 352.769 23.7073H334.527V55.1503H352.769ZM461.61 108.396V45.0648L417.116 108.396H401.542V4.57447H422.01V68.0539L466.505 4.57447H482.078V108.396H461.61ZM574.605 4.57447V108.396H554.138V72.355H542.421L518.542 108.396H495.553L520.915 70.1303C514.29 67.7572 508.901 63.7032 504.749 57.9683C500.596 52.2334 498.519 45.9053 498.519 38.9839C498.519 29.4916 501.881 21.3837 508.605 14.66C515.328 7.93631 523.486 4.57447 533.077 4.57447H574.605ZM533.077 54.4088H554.138V23.7073H533.077C529.221 23.7073 525.908 25.1904 523.14 28.1568C520.371 31.1231 518.987 34.7321 518.987 38.9839C518.987 43.2356 520.371 46.8941 523.14 49.9593C525.908 52.9256 529.221 54.4088 533.077 54.4088Z" stroke="#D5BB71" stroke-width="4" mask="url(#path-1-outside-1)"/>
</svg>
