<svg xmlns="http://www.w3.org/2000/svg" viewBox="0 0 325.71 48.15"><defs><style>.cls-1{fill:#302927;}</style></defs><path class="cls-1" d="M313.22,24.71h-4.65l.54-8.52h15.23V10.77H303.92l-1.39,19.51h10.59c4.21,0,6.92,2.4,6.92,6.11s-2.69,6.06-7,6.06c-3.8,0-6.37-1.75-7.25-4.92l-.16-.62-4.93,2.81.13.39c1.67,4.91,6.35,8,12.21,8,6.11,0,12.69-3.66,12.69-11.68s-6.47-11.68-12.49-11.68"/><path class="cls-1" d="M127,24c0-4.91,4.53-8.21,8.77-8.21,5.15,0,8.35,3.64,8.35,9.49V47.51H150V24.59c0-4.25,2.35-8.78,8.92-8.78,5.12,0,8.42,3.73,8.42,9.49V47.51h5.83V25.3c0-9.23-5.19-15-13.54-15a14.17,14.17,0,0,0-11.83,5.85c-1.74-2.85-5-5.85-10.91-5.85A13,13,0,0,0,127,14.39V10.83h-5.84V47.51H127Z"/><path class="cls-1" d="M60.3,28.63c0-5.54-1.78-10.24-5-13.57A16.66,16.66,0,0,0,43.2,10.19c-10.69,0-18.44,8-18.44,19S32.28,48,43.06,48c7.14,0,12.71-3.08,16.09-8.9l.29-.51-5-3.21-.32.55c-2.64,4.49-6.15,6.59-11.06,6.59a12.32,12.32,0,0,1-12.45-12H60.3ZM30.88,25.26a12.44,12.44,0,0,1,12.18-9.59,11.19,11.19,0,0,1,11.31,9.59Z"/><polygon class="cls-1" points="5.83 16.31 22.54 16.31 22.54 10.83 0 10.83 0 47.58 5.83 47.58 5.83 16.31"/><path class="cls-1" d="M196.4,48c7.14,0,12.71-3.08,16.09-8.9l.29-.51-5-3.21-.32.55c-2.64,4.49-6.15,6.59-11.06,6.59a12.32,12.32,0,0,1-12.45-12h29.69V28.63c0-5.54-1.78-10.24-5-13.57a16.66,16.66,0,0,0-12.07-4.87c-10.69,0-18.44,8-18.44,19S185.62,48,196.4,48M184.22,25.26a12.44,12.44,0,0,1,12.18-9.59,11.19,11.19,0,0,1,11.31,9.59Z"/><rect class="cls-1" x="107.77" width="5.83" height="47.51"/><path class="cls-1" d="M83.1,48.15a17.82,17.82,0,0,0,11.34-3.93v3.36h5.76V10.9H94.44v3.38A18,18,0,0,0,83.1,10.33,18.35,18.35,0,0,0,69.73,15.8a19.2,19.2,0,0,0-5.22,13.48,19.08,19.08,0,0,0,5.22,13.44A18.42,18.42,0,0,0,83.1,48.15M70.35,29.28c0-7.48,5.36-13.11,12.47-13.11,7.37,0,12.33,5.27,12.33,13.11s-5,13-12.33,13c-7.11,0-12.47-5.61-12.47-13"/><path class="cls-1" d="M255.42,42.39c-7.73,0-13.35-5.56-13.35-13.24a12.89,12.89,0,0,1,13.35-13.29A12.13,12.13,0,0,1,265,20.33l5.06-2.93a18.26,18.26,0,0,0-14.68-7.22c-10.9,0-19.12,8.15-19.12,19s8.22,19,19.12,19a18.13,18.13,0,0,0,14.83-7.47l-5-2.94a12.31,12.31,0,0,1-9.81,4.68"/><path class="cls-1" d="M282.71,41.78l8.23-8.18c3-3,6.49-7.12,6.49-12.07,0-7.38-5.95-11.35-11.55-11.35a12.51,12.51,0,0,0-11.66,7.28l-.2.41,4.82,2.84.23-.49a7.16,7.16,0,0,1,6.86-4.49,5.52,5.52,0,0,1,5.79,5.85c0,3-2.46,5.86-4.88,8.28L274.17,42.79v4.55h23.92V41.78Z"/></svg>