<svg xmlns="http://www.w3.org/2000/svg" viewBox="0 0 305.17 56.49"><defs><style>.cls-1{fill:#fff;}</style></defs><path class="cls-1" d="M148.2,28c0-5.73,5.3-9.58,10.24-9.58,6,0,9.75,4.24,9.75,11.07V55.44H175V28.69c0-5,2.74-10.24,10.41-10.24,6,0,9.82,4.35,9.82,11.07V55.44H202V29.52c0-10.77-6.06-17.46-15.8-17.46a16.54,16.54,0,0,0-13.81,6.82c-2-3.32-5.81-6.82-12.73-6.82a15.14,15.14,0,0,0-11.49,4.73V12.64h-6.8v42.8h6.8ZM70.37,33.41c0-6.47-2.08-11.95-5.88-15.84a19.41,19.41,0,0,0-14.07-5.68c-12.48,0-21.53,9.3-21.53,22.11,0,13,8.78,22,21.36,22C58.59,56,65.08,52.43,69,45.63l.34-.58L63.53,41.3l-.37.63c-3.08,5.26-7.18,7.7-12.91,7.7a14.37,14.37,0,0,1-14.53-14H70.37ZM36,29.48A14.51,14.51,0,0,1,50.25,18.29,13,13,0,0,1,63.44,29.48ZM6.81,19H26.3V12.64H0V55.53H6.81ZM229.19,56C237.53,56,244,52.43,248,45.63l.34-.58-5.84-3.75-.37.63c-3.08,5.26-7.18,7.7-12.91,7.7a14.37,14.37,0,0,1-14.53-14h34.65V33.41c0-6.47-2.07-11.95-5.87-15.84a19.45,19.45,0,0,0-14.08-5.68c-12.47,0-21.52,9.3-21.52,22.11,0,13,8.78,22,21.35,22M215,29.48a14.49,14.49,0,0,1,14.21-11.19,13.05,13.05,0,0,1,13.2,11.19ZM132.57,0h-6.81V55.44h6.81ZM97,56.19a20.72,20.72,0,0,0,13.22-4.58v3.92h6.73V12.72H110.2v3.94A20.94,20.94,0,0,0,97,12.06a21.41,21.41,0,0,0-15.61,6.38,22.4,22.4,0,0,0-6.08,15.73,22.27,22.27,0,0,0,6.09,15.69A21.49,21.49,0,0,0,97,56.19m-14.89-22c0-8.73,6.26-15.3,14.56-15.3,8.6,0,14.38,6.14,14.38,15.3s-5.78,15.21-14.38,15.21c-8.3,0-14.56-6.54-14.56-15.21"/><path class="cls-1" d="M290.28,56.49c9.18,0,14.89-4.81,14.89-12.54a11.08,11.08,0,0,0-5.8-10.29l-.37-.21.35-.23c2.92-1.88,4.4-4.89,4.4-8.93,0-8.41-6.77-12.18-13.47-12.18s-13.47,3.77-13.47,12.18c0,4.05,1.44,7.06,4.28,8.93l.35.23-.36.21A11.12,11.12,0,0,0,275.32,44c0,7.62,5.87,12.54,15,12.54m0-38.14c4.17,0,6.87,2.45,6.87,6.25,0,3.57-2.57,5.71-6.87,5.71s-6.87-2.14-6.87-5.71c0-3.8,2.69-6.25,6.87-6.25m0,17.93c5.11,0,8.29,2.67,8.29,7s-3.18,7-8.29,7-8.36-2.68-8.36-7,3.21-7,8.36-7"/></svg>