<svg xmlns="http://www.w3.org/2000/svg" viewBox="0 0 395.56 57.21"><defs><style>.cls-1{fill:#fff;}</style></defs><path class="cls-1" d="M150.8,28.39c0-5.8,5.39-9.7,10.42-9.7,6.11,0,9.91,4.29,9.91,11.21V56.15h6.93V29.06c0-5,2.78-10.37,10.58-10.37,6.08,0,10,4.4,10,11.21V56.15h6.93V29.9c0-10.91-6.16-17.69-16.08-17.69a16.86,16.86,0,0,0-14.05,6.91c-2.07-3.36-5.92-6.91-13-6.91A15.46,15.46,0,0,0,150.8,17V12.8h-6.93V56.15h6.93ZM71.6,33.84c0-6.55-2.11-12.1-6-16A19.78,19.78,0,0,0,51.3,12.05c-12.69,0-21.9,9.41-21.9,22.39,0,13.13,8.93,22.3,21.73,22.3,8.48,0,15.09-3.64,19.11-10.52l.34-.59-5.93-3.8-.38.64c-3.14,5.32-7.31,7.8-13.14,7.8A14.59,14.59,0,0,1,36.35,36.08H71.6Zm-34.94-4A14.77,14.77,0,0,1,51.13,18.52,13.27,13.27,0,0,1,64.56,29.86ZM6.93,19.28H26.76V12.8H0V56.24H6.93ZM233.21,56.74c8.48,0,15.08-3.64,19.1-10.52l.35-.59-5.94-3.8-.38.64c-3.13,5.32-7.3,7.8-13.13,7.8a14.61,14.61,0,0,1-14.79-14.19h35.25V33.84c0-6.55-2.1-12.1-6-16a19.81,19.81,0,0,0-14.32-5.75c-12.7,0-21.91,9.41-21.91,22.39,0,13.13,8.94,22.3,21.74,22.3M218.74,29.86a14.76,14.76,0,0,1,14.47-11.34,13.26,13.26,0,0,1,13.42,11.34ZM134.89,0H128V56.15h6.93ZM98.68,56.91a21.12,21.12,0,0,0,13.45-4.64v4H119V12.89h-6.84v4a21.42,21.42,0,0,0-13.45-4.66A21.89,21.89,0,0,0,82.8,18.67,22.65,22.65,0,0,0,76.61,34.6,22.54,22.54,0,0,0,82.8,50.5a21.94,21.94,0,0,0,15.88,6.41M83.53,34.6c0-8.83,6.37-15.49,14.81-15.49,8.75,0,14.64,6.23,14.64,15.49S107.09,50,98.34,50C89.9,50,83.53,43.39,83.53,34.6"/><path class="cls-1" d="M354.17,30.88a7.32,7.32,0,0,1-7.5,7.39h-4.62V46h-3.72V23.48h8.34a7.31,7.31,0,0,1,7.5,7.4m-3.72,0A3.72,3.72,0,0,0,346.67,27h-4.62V34.8h4.62a3.73,3.73,0,0,0,3.78-3.92m14.85-1.26v3.76c-2.29-.16-5,.9-5,4.51V46h-3.49V29.91h3.49v2.7a5.1,5.1,0,0,1,5-3m.93,8.33a8.53,8.53,0,1,1,8.53,8.46A8.42,8.42,0,0,1,366.23,38m13.57,0a5,5,0,1,0-5,5.08,4.95,4.95,0,0,0,5-5.08M387,16.61a5.09,5.09,0,0,1,5.09,5.08V48.2A5.08,5.08,0,0,1,387,53.27H333a5.09,5.09,0,0,1-5.1-5.07V21.69a5.1,5.1,0,0,1,5.1-5.08h54m0-3.41H333a8.51,8.51,0,0,0-8.53,8.49V48.2A8.51,8.51,0,0,0,333,56.69h54a8.5,8.5,0,0,0,8.52-8.49V21.69A8.5,8.5,0,0,0,387,13.2"/><path class="cls-1" d="M296.46,57.21c9.34,0,15.15-4.86,15.15-12.7a11.21,11.21,0,0,0-5.9-10.42l-.38-.21.36-.23c3-1.91,4.47-4.95,4.47-9,0-8.52-6.88-12.33-13.7-12.33s-13.71,3.81-13.71,12.33c0,4.1,1.47,7.15,4.37,9l.35.23-.37.21a11.24,11.24,0,0,0-5.86,10.42c0,7.72,6,12.7,15.22,12.7m0-38.63c4.24,0,7,2.48,7,6.33,0,3.62-2.61,5.79-7,5.79s-7-2.17-7-5.79c0-3.85,2.74-6.33,7-6.33m0,18.16c5.2,0,8.43,2.71,8.43,7.08s-3.23,7.08-8.43,7.08-8.5-2.71-8.5-7.08,3.26-7.08,8.5-7.08"/></svg>