<svg width="575" height="108" viewBox="0 0 575 108" fill="none" xmlns="http://www.w3.org/2000/svg">
<path d="M97.1543 26.5783L98.0273 26.0721L97.5131 25.2037C93.1518 17.8378 87.0454 12.0259 79.2175 7.77227C71.4794 3.42103 63.016 1.2478 53.8461 1.2478C38.6207 1.2478 25.9842 6.3175 16.016 16.4783C6.0545 26.5373 1.08008 39.0728 1.08008 54.0138C1.08008 68.8627 6.05615 81.3961 16.0143 91.5476C25.9827 101.71 38.6198 106.78 53.8461 106.78C63.1074 106.78 71.6177 104.656 79.3578 100.399L79.3661 100.394C87.0977 96.045 93.1536 90.1867 97.5131 82.824L98.0273 81.9556L97.1543 81.4494L80.2307 71.6366L79.3414 71.1209L78.8505 72.0242C76.5784 76.2049 73.2146 79.5317 68.7259 82.0057C64.3362 84.3828 59.3839 85.5809 53.8461 85.5809C44.4053 85.5809 36.8548 82.629 31.0962 76.7806C25.4251 70.9251 22.5634 63.366 22.5634 54.0138C22.5634 44.5639 25.427 36.9585 31.0962 31.1049C36.8548 25.2565 44.4053 22.3045 53.8461 22.3045C59.3787 22.3045 64.327 23.5476 68.715 26.0159L68.722 26.0198L68.729 26.0236C73.1148 28.3993 76.4831 31.724 78.8541 36.01L79.348 36.9029L80.2307 36.3911L97.1543 26.5783ZM235.897 26.5783L236.77 26.0721L236.255 25.2037C231.894 17.8379 225.788 12.026 217.96 7.7724C210.222 3.42107 201.758 1.2478 192.588 1.2478C177.363 1.2478 164.727 6.31746 154.758 16.4782C144.797 26.5372 139.822 39.0728 139.822 54.0138C139.822 68.8627 144.798 81.3961 154.757 91.5476C164.725 101.71 177.362 106.78 192.588 106.78C201.85 106.78 210.36 104.656 218.1 100.399L218.108 100.394C225.84 96.045 231.896 90.1867 236.255 82.824L236.77 81.9556L235.897 81.4494L218.973 71.6366L218.084 71.1209L217.593 72.0242C215.321 76.2048 211.957 79.5315 207.469 82.0055C203.079 84.3827 198.126 85.5809 192.588 85.5809C183.148 85.5809 175.598 82.6292 169.839 76.7813C164.168 70.9257 161.306 63.3663 161.306 54.0138C161.306 44.5635 164.17 36.9579 169.839 31.1042C175.598 25.2562 183.148 22.3045 192.588 22.3045C198.121 22.3045 203.069 23.5476 207.457 26.0159L207.464 26.0198L207.471 26.0236C211.857 28.3993 215.225 31.724 217.596 36.01L218.09 36.9029L218.973 36.3911L235.897 26.5783ZM310.03 85.0166V84.0166H309.03H268.077V63.6889H304.763H305.763V62.6889V44.201V43.201H304.763H268.077V24.0111H308.319H309.319V23.0111V4.2388V3.2388H308.319H247.451H246.451V4.2388V103.789V104.789H247.451H309.03H310.03V103.789V85.0166ZM342.489 104.789H343.489V103.789V72.0796H359.981C369.807 72.0796 378.122 68.7612 384.86 62.1212C391.597 55.4817 394.971 47.3065 394.971 37.6592C394.971 28.0119 391.597 19.8367 384.86 13.1971C378.122 6.55714 369.807 3.2388 359.981 3.2388H322.863H321.863V4.2388V103.789V104.789H322.863H342.489ZM463.345 103.789V104.789H464.345H483.97H484.97V103.789V4.2388V3.2388H483.97H469.038H468.517L468.219 3.66483L427.373 61.9377V4.2388V3.2388H426.373H406.748H405.748V4.2388V103.789V104.789H406.748H421.68H422.2L422.498 104.364L463.345 46.2262V103.789ZM573.691 4.2388V3.2388H572.691H532.871C523.412 3.2388 515.335 6.56587 508.698 13.2023C502.064 19.8365 498.735 27.8651 498.735 37.2325C498.735 44.085 500.795 50.3571 504.898 56.0225C508.746 61.3369 513.68 65.1976 519.683 67.5896L496.057 103.236L495.028 104.789H496.891H518.934H519.471L519.767 104.341L542.367 70.2308H552.065V103.789V104.789H553.065H572.691H573.691V103.789V4.2388ZM373.487 37.6592C373.487 41.6859 372.2 45.0377 369.638 47.7786C367.089 50.4123 363.895 51.7339 359.981 51.7339H343.489V23.5845H359.981C363.898 23.5845 367.094 24.9081 369.644 27.5459C372.194 30.1839 373.487 33.5283 373.487 37.6592ZM552.065 23.5845V51.0228H532.871C529.469 51.0228 526.554 49.7293 524.079 47.0799C521.599 44.3318 520.36 41.0668 520.36 37.2325C520.36 33.3957 521.601 30.1828 524.074 27.5332C526.55 24.8797 529.466 23.5845 532.871 23.5845H552.065Z" stroke="#0D0152" stroke-width="2"/>
</svg>
