<svg xmlns="http://www.w3.org/2000/svg" xmlns:xlink="http://www.w3.org/1999/xlink" preserveAspectRatio="xMidYMid" width="31.688" height="32.219" viewBox="0 0 31.688 32.219">
  <defs>
    <style>
      .cls-1 {
        fill: #fff;
        fill-rule: evenodd;
      }
    </style>
  </defs>
  <path d="M15.844,32.212 C7.099,32.212 -0.014,24.984 -0.014,16.100 C-0.014,7.216 7.099,-0.012 15.844,-0.012 C24.588,-0.012 31.703,7.216 31.703,16.100 C31.703,24.984 24.588,32.212 15.844,32.212 ZM15.844,0.765 C7.521,0.765 0.751,7.644 0.751,16.100 C0.751,24.556 7.521,31.436 15.844,31.436 C24.166,31.436 30.938,24.556 30.938,16.100 C30.938,7.644 24.166,0.765 15.844,0.765 ZM27.637,16.100 C27.637,22.172 23.168,27.203 17.396,27.978 C17.250,28.590 16.705,29.046 16.052,29.046 C15.417,29.046 14.883,28.615 14.719,28.027 C8.742,27.450 4.050,22.321 4.050,16.100 C4.050,14.368 4.414,12.721 5.068,11.233 C4.787,10.978 4.609,10.611 4.609,10.202 C4.609,9.431 5.234,8.807 6.005,8.807 C6.157,8.807 6.303,8.832 6.440,8.877 C8.596,5.988 12.009,4.118 15.844,4.118 C19.677,4.118 23.089,5.987 25.244,8.873 C25.380,8.831 25.524,8.807 25.673,8.807 C26.450,8.807 27.079,9.431 27.079,10.202 C27.079,10.610 26.901,10.977 26.619,11.232 C27.273,12.720 27.637,14.367 27.637,16.100 ZM25.673,11.597 C24.897,11.597 24.268,10.972 24.268,10.202 C24.268,9.857 24.394,9.543 24.602,9.300 C22.585,6.624 19.409,4.895 15.844,4.895 C12.273,4.895 9.094,6.629 7.077,9.310 C7.279,9.552 7.400,9.862 7.400,10.202 C7.400,10.972 6.775,11.597 6.005,11.597 C5.920,11.597 5.837,11.588 5.757,11.573 C5.152,12.958 4.815,14.490 4.815,16.100 C4.815,21.895 9.168,26.677 14.726,27.248 C14.898,26.674 15.426,26.256 16.052,26.256 C16.659,26.256 17.174,26.651 17.361,27.199 C22.726,26.445 26.872,21.755 26.872,16.100 C26.872,14.489 26.535,12.958 25.930,11.572 C25.847,11.587 25.761,11.597 25.673,11.597 ZM15.845,24.870 C14.354,24.870 12.951,24.483 11.729,23.805 L21.489,14.583 L16.312,14.583 L19.811,8.329 C22.570,9.789 24.455,12.724 24.455,16.107 C24.455,20.947 20.600,24.870 15.845,24.870 ZM14.674,17.165 L11.244,23.514 C8.834,21.961 7.235,19.225 7.235,16.107 C7.235,11.268 11.089,7.345 15.845,7.345 C17.135,7.345 18.359,7.635 19.458,8.153 L10.333,17.165 L14.674,17.165 Z" class="cls-1"/>
</svg>
