<svg xmlns="http://www.w3.org/2000/svg" xmlns:xlink="http://www.w3.org/1999/xlink" preserveAspectRatio="xMidYMid" width="36.875" height="32.406" viewBox="0 0 36.875 32.406">
  <defs>
    <style>
      .cls-1 {
        fill: #fff;
        fill-rule: evenodd;
      }
    </style>
  </defs>
  <path d="M27.660,32.412 L9.218,32.412 L-0.001,16.208 L9.218,0.003 L27.660,0.003 L36.881,16.208 L27.660,32.412 ZM27.219,0.781 L9.660,0.781 L0.883,16.208 L9.660,31.635 L27.219,31.635 L35.997,16.208 L27.219,0.781 ZM28.178,21.127 L28.178,19.144 L30.087,19.144 L30.087,21.127 L28.178,21.127 ZM28.178,15.200 L30.087,15.200 L30.087,17.184 L28.178,17.184 L28.178,15.200 ZM28.178,11.234 L30.087,11.234 L30.087,13.217 L28.178,13.217 L28.178,11.234 ZM23.986,24.148 L23.313,24.148 L23.313,28.046 L21.359,28.046 L21.359,24.148 L19.404,24.148 L19.404,28.046 L17.449,28.046 L17.449,24.148 L15.517,24.148 L15.517,28.046 L13.563,28.046 L13.563,24.148 L12.868,24.148 C11.640,24.148 10.643,23.138 10.643,21.891 L10.643,10.537 C10.643,9.290 11.640,8.280 12.868,8.280 L23.986,8.280 C25.214,8.280 26.211,9.290 26.211,10.537 L26.211,21.891 C26.211,23.138 25.214,24.148 23.986,24.148 ZM21.279,14.130 C21.279,13.672 20.913,13.300 20.461,13.300 L16.378,13.300 C15.926,13.300 15.560,13.672 15.560,14.130 L15.560,18.300 C15.560,18.758 15.926,19.130 16.378,19.130 L20.461,19.130 C20.913,19.130 21.279,18.758 21.279,18.300 L21.279,14.130 ZM21.359,4.338 L23.313,4.338 L23.313,6.299 L21.359,6.299 L21.359,4.338 ZM17.449,4.338 L19.404,4.338 L19.404,6.299 L17.449,6.299 L17.449,4.338 ZM13.563,4.338 L15.517,4.338 L15.517,6.299 L13.563,6.299 L13.563,4.338 ZM6.744,19.144 L8.653,19.144 L8.653,21.127 L6.744,21.127 L6.744,19.144 ZM6.744,15.200 L8.653,15.200 L8.653,17.184 L6.744,17.184 L6.744,15.200 ZM6.744,11.234 L8.653,11.234 L8.653,13.217 L6.744,13.217 L6.744,11.234 Z" class="cls-1"/>
</svg>
