<svg xmlns="http://www.w3.org/2000/svg" xmlns:xlink="http://www.w3.org/1999/xlink" preserveAspectRatio="xMidYMid" width="31.06" height="32.407" viewBox="0 0 31.06 32.407">
  <defs>
    <style>
      .cls-1 {
        fill: #fff;
        fill-rule: evenodd;
      }
    </style>
  </defs>
  <path d="M28.852,21.165 L25.936,21.165 C27.161,21.165 28.155,20.155 28.155,18.909 L28.155,13.494 C28.155,12.247 27.161,11.237 25.936,11.237 L28.852,11.237 C30.078,11.237 31.072,12.247 31.072,13.494 L31.072,18.909 C31.072,20.155 30.078,21.165 28.852,21.165 ZM24.299,0.781 L6.787,0.781 L4.093,5.524 L3.430,5.136 L6.345,0.004 L24.741,0.004 L27.726,5.262 L27.064,5.650 L24.299,0.781 ZM14.560,13.494 L14.560,18.909 C14.560,20.155 13.568,21.165 12.341,21.165 L2.209,21.165 C0.983,21.165 -0.011,20.155 -0.011,18.909 L-0.011,13.494 C-0.011,12.247 0.983,11.237 2.209,11.237 L12.341,11.237 C13.568,11.237 14.560,12.247 14.560,13.494 ZM26.226,13.494 L26.226,18.909 C26.226,20.155 25.232,21.165 24.006,21.165 L20.103,21.165 C21.327,21.165 22.321,20.155 22.321,18.909 L22.321,13.494 C22.321,12.247 21.327,11.237 20.103,11.237 L24.006,11.237 C25.232,11.237 26.226,12.247 26.226,13.494 ZM8.720,4.335 L22.299,4.335 L22.299,5.303 L8.720,5.303 L8.720,4.335 ZM22.299,27.033 L8.720,27.033 L8.720,26.088 L22.299,26.088 L22.299,27.033 ZM14.269,11.237 L18.175,11.237 C19.399,11.237 20.393,12.247 20.393,13.494 L20.393,18.909 C20.393,20.155 19.399,21.165 18.175,21.165 L14.269,21.165 C15.496,21.165 16.489,20.155 16.489,18.909 L16.489,13.494 C16.489,12.247 15.496,11.237 14.269,11.237 ZM6.787,31.635 L24.299,31.635 L27.064,26.766 L27.726,27.154 L24.741,32.412 L6.345,32.412 L3.430,27.280 L4.093,26.892 L6.787,31.635 Z" class="cls-1"/>
</svg>
