<svg width="31" height="31" viewBox="0 0 31 31" fill="none" xmlns="http://www.w3.org/2000/svg">
<path d="M17.6368 15.2469L30.6362 2.24741C31.0939 1.78973 31.0939 1.0477 30.6362 0.590083C30.1786 0.132466 29.4365 0.132407 28.9789 0.590083L15.9795 13.5896L2.98007 0.590083C2.52239 0.132407 1.78036 0.132407 1.32275 0.590083C0.865132 1.04776 0.865074 1.78979 1.32275 2.24741L14.3221 15.2468L1.32275 28.2463C0.865074 28.704 0.865074 29.446 1.32275 29.9036C1.55156 30.1325 1.8515 30.2468 2.15144 30.2468C2.45138 30.2468 2.75126 30.1325 2.98013 29.9036L15.9795 16.9042L28.9789 29.9036C29.2077 30.1325 29.5076 30.2468 29.8075 30.2468C30.1075 30.2468 30.4074 30.1325 30.6362 29.9036C31.0939 29.446 31.0939 28.7039 30.6362 28.2463L17.6368 15.2469Z" fill="url(#paint0_linear)"/>
<defs>
<linearGradient id="paint0_linear" x1="15.9795" y1="0.246826" x2="15.9795" y2="30.2468" gradientUnits="userSpaceOnUse">
<stop stop-color="#FF721B"/>
<stop offset="1" stop-color="#FF1E75"/>
</linearGradient>
</defs>
</svg>
